<svg width="266" height="266" viewBox="0 0 266 266" fill="none" xmlns="http://www.w3.org/2000/svg">
<path d="M46.0917 216.79C44.9391 216.672 43.1214 216.199 42.3825 215.814L41.9688 215.593V213.376C41.9688 211.307 41.9835 211.145 42.2347 211.248C42.3677 211.322 43.2396 211.632 44.1706 211.957C45.6041 212.46 46.1065 212.549 47.4365 212.622C49.535 212.711 50.2591 212.371 50.2886 211.263C50.3034 210.465 49.8305 210.081 47.3626 208.884C43.1953 206.859 42.2347 205.721 42.2052 202.751C42.1904 201.436 42.2347 201.258 42.6781 200.357C43.4317 198.835 44.6287 197.948 46.6237 197.431C48.0572 197.061 50.5103 197.032 52.1211 197.372C53.2294 197.593 55.0914 198.229 55.2983 198.436C55.3722 198.51 55.0619 199.426 54.6333 200.49C53.9979 202.071 53.8205 202.411 53.6432 202.293C53.525 202.219 52.7861 201.953 52.0176 201.702C50.2 201.111 48.4266 201.022 47.7764 201.51C47.4661 201.746 47.3479 201.968 47.3183 202.411C47.274 202.928 47.3331 203.061 47.7616 203.416C48.0276 203.638 49.2985 204.332 50.6137 204.968C53.259 206.238 54.2047 206.963 54.8993 208.248C55.3131 208.987 55.3426 209.135 55.3426 210.657C55.3426 212.135 55.2983 212.371 54.9141 213.214C54.4264 214.263 53.1851 215.519 52.1359 216.021C50.7024 216.716 48.3084 217.026 46.0917 216.79Z" fill="#123B33"/>
<path d="M79.0608 216.731C77.982 216.494 77.45 216.199 76.7998 215.474C76.0609 214.647 75.7949 213.967 75.7063 212.563C75.5585 210.406 76.1939 209.135 77.849 208.248C79.0608 207.598 80.2874 207.347 82.6518 207.228C84.8833 207.125 84.8094 207.169 84.5286 206.135C84.3069 205.337 83.7749 205.041 82.5927 205.056C81.6469 205.071 79.8588 205.514 79.046 205.943L78.6618 206.135L77.9229 204.48L77.184 202.825L77.8638 202.5C78.8687 202.012 80.1248 201.716 81.9573 201.539C85.7256 201.14 88.223 202.16 89.3018 204.495C89.6122 205.16 89.6269 205.411 89.6713 210.923L89.7156 216.642H87.957H86.2133L85.7108 215.607C85.43 215.046 85.1788 214.573 85.1197 214.573C85.0754 214.573 84.9572 214.706 84.8685 214.869C84.5138 215.415 83.169 216.346 82.4154 216.553C81.2627 216.878 79.977 216.952 79.0608 216.731ZM83.6567 212.903C84.3365 212.46 84.6764 211.721 84.6764 210.746V209.962L83.3759 210.021C81.4696 210.11 80.8342 210.583 80.8342 211.928C80.8342 212.814 81.3218 213.243 82.3563 213.243C82.9474 213.243 83.2873 213.154 83.6567 212.903Z" fill="#123B33"/>
<path d="M115.488 216.79C114.247 216.568 113.537 216.214 112.902 215.504C111.927 214.396 111.823 213.864 111.749 209.446L111.69 205.559H110.818H109.932L109.976 204.495L110.02 203.431L111.143 202.633L112.281 201.82L112.902 200.298L113.537 198.761H115.207H116.892V200.239V201.717H118.739H120.586V203.638V205.559H118.739H116.892V208.81V212.076L117.261 212.431C117.557 212.741 117.764 212.8 118.488 212.8C118.961 212.8 119.67 212.711 120.054 212.593L120.749 212.386L120.705 214.248L120.66 216.11L119.626 216.435C118.429 216.805 116.537 216.967 115.488 216.79Z" fill="#123B33"/>
<path d="M141.704 216.79C140.551 216.672 138.733 216.199 137.995 215.814L137.581 215.593V213.376C137.581 211.307 137.596 211.145 137.847 211.248C137.98 211.322 138.852 211.632 139.783 211.957C141.216 212.46 141.719 212.549 143.049 212.622C145.147 212.711 145.871 212.371 145.901 211.263C145.915 210.465 145.443 210.081 142.975 208.884C138.807 206.859 137.847 205.721 137.817 202.751C137.802 201.436 137.847 201.258 138.29 200.357C139.044 198.835 140.241 197.948 142.236 197.431C143.669 197.061 146.122 197.032 147.733 197.372C148.841 197.593 150.703 198.229 150.91 198.436C150.984 198.51 150.674 199.426 150.245 200.49C149.61 202.071 149.433 202.411 149.255 202.293C149.137 202.219 148.398 201.953 147.63 201.702C145.812 201.111 144.039 201.022 143.388 201.51C143.078 201.746 142.96 201.968 142.93 202.411C142.886 202.928 142.945 203.061 143.374 203.416C143.64 203.638 144.911 204.332 146.226 204.968C148.871 206.238 149.817 206.963 150.511 208.248C150.925 208.987 150.955 209.135 150.955 210.657C150.955 212.135 150.91 212.371 150.526 213.214C150.038 214.263 148.797 215.519 147.748 216.021C146.314 216.716 143.92 217.026 141.704 216.79Z" fill="#123B33"/>
<path d="M156.496 216.731C155.418 216.494 154.886 216.199 154.235 215.474C153.496 214.647 153.23 213.967 153.142 212.563C152.994 210.406 153.629 209.135 155.285 208.248C156.496 207.598 157.723 207.347 160.087 207.228C162.319 207.125 162.245 207.169 161.964 206.135C161.742 205.337 161.21 205.041 160.028 205.056C159.082 205.071 157.294 205.514 156.482 205.943L156.097 206.135L155.358 204.48L154.62 202.825L155.299 202.5C156.304 202.012 157.56 201.716 159.393 201.539C163.161 201.14 165.659 202.16 166.737 204.495C167.048 205.16 167.062 205.411 167.107 210.923L167.151 216.642H165.393H163.649L163.146 215.607C162.866 215.046 162.614 214.573 162.555 214.573C162.511 214.573 162.393 214.706 162.304 214.869C161.949 215.415 160.605 216.346 159.851 216.553C158.698 216.878 157.413 216.952 156.496 216.731ZM161.092 212.903C161.772 212.46 162.112 211.721 162.112 210.746V209.962L160.811 210.021C158.905 210.11 158.27 210.583 158.27 211.928C158.27 212.814 158.757 213.243 159.792 213.243C160.383 213.243 160.723 213.154 161.092 212.903Z" fill="#123B33"/>
<path d="M173.343 216.731C172.264 216.494 171.732 216.199 171.082 215.474C170.343 214.647 170.077 213.967 169.988 212.563C169.841 210.406 170.476 209.135 172.131 208.248C173.343 207.598 174.57 207.347 176.934 207.228C179.165 207.125 179.092 207.169 178.811 206.135C178.589 205.337 178.057 205.041 176.875 205.056C175.929 205.071 174.141 205.514 173.328 205.943L172.944 206.135L172.205 204.48L171.466 202.825L172.146 202.5C173.151 202.012 174.407 201.716 176.239 201.539C180.008 201.14 182.505 202.16 183.584 204.495C183.894 205.16 183.909 205.411 183.953 210.923L183.998 216.642H182.239H180.495L179.993 215.607C179.712 215.046 179.461 214.573 179.402 214.573C179.358 214.573 179.239 214.706 179.151 214.869C178.796 215.415 177.451 216.346 176.698 216.553C175.545 216.878 174.259 216.952 173.343 216.731ZM177.939 212.903C178.619 212.46 178.959 211.721 178.959 210.746V209.962L177.658 210.021C175.752 210.11 175.116 210.583 175.116 211.928C175.116 212.814 175.604 213.243 176.638 213.243C177.23 213.243 177.569 213.154 177.939 212.903Z" fill="#123B33"/>
<path d="M192.037 216.79C190.796 216.568 190.086 216.214 189.451 215.504C188.475 214.396 188.372 213.864 188.298 209.446L188.239 205.559H187.367H186.48L186.525 204.495L186.569 203.431L187.692 202.633L188.83 201.82L189.451 200.298L190.086 198.761H191.756H193.441V200.239V201.717H195.288H197.135V203.638V205.559H195.288H193.441V208.81V212.076L193.81 212.431C194.106 212.741 194.313 212.8 195.037 212.8C195.51 212.8 196.219 212.711 196.603 212.593L197.298 212.386L197.253 214.248L197.209 216.11L196.175 216.435C194.978 216.805 193.086 216.967 192.037 216.79Z" fill="#123B33"/>
<path d="M58.2241 206.372V196.101H60.8398H63.4407L63.352 199.544C63.3077 201.421 63.219 203.091 63.1747 203.239C62.9826 203.712 63.485 203.505 63.9579 202.914C64.2239 202.589 64.7855 202.145 65.2731 201.909C66.0416 201.539 66.278 201.495 67.5341 201.51C68.6425 201.51 69.1301 201.584 69.8099 201.864C70.9773 202.308 71.9527 203.298 72.4256 204.465C72.7655 205.322 72.7655 205.455 72.8246 210.997L72.8689 216.642H70.2828H67.6819V212.105C67.6819 207.406 67.608 206.667 67.1203 206.017C66.5292 205.219 65.1549 205.249 64.3421 206.061C63.5589 206.845 63.4998 207.258 63.4407 212.179L63.3816 216.642H60.7955H58.2241V206.372Z" fill="#123B33"/>
<path d="M93.2476 206.372V196.101H95.8484H98.4493L98.3754 201.761C98.3311 204.864 98.2572 207.583 98.1981 207.82C98.0356 208.455 98.3016 208.278 98.8927 207.362C99.1882 206.904 100.297 205.441 101.331 204.125L103.223 201.731L106.001 201.717C107.523 201.717 108.764 201.746 108.764 201.791C108.764 201.85 104.848 206.712 103.932 207.79C103.755 207.997 104.05 208.529 106.37 212.15C107.818 214.426 109.06 216.361 109.119 216.465C109.208 216.598 108.616 216.642 106.341 216.642H103.474L101.893 214.056C101.021 212.637 100.252 211.426 100.178 211.381C100.09 211.337 99.6759 211.573 99.2326 211.899L98.4198 212.519V214.573V216.642H95.8337H93.2476V206.372Z" fill="#123B33"/>
<path d="M123.69 209.18V201.717H126.202H128.714V209.18V216.642H126.202H123.69V209.18Z" fill="#123B33"/>
<path d="M200.091 206.372V196.101H202.706H205.307L205.219 199.544C205.174 201.421 205.086 203.091 205.041 203.239C204.849 203.712 205.352 203.505 205.825 202.914C206.091 202.589 206.652 202.145 207.14 201.909C207.908 201.539 208.145 201.495 209.401 201.51C210.509 201.51 210.997 201.584 211.677 201.864C212.844 202.308 213.819 203.298 214.292 204.465C214.632 205.322 214.632 205.455 214.691 210.997L214.736 216.642H212.149H209.549V212.105C209.549 207.406 209.475 206.667 208.987 206.017C208.396 205.219 207.022 205.249 206.209 206.061C205.426 206.845 205.366 207.258 205.307 212.179L205.248 216.642H202.662H200.091V206.372Z" fill="#123B33"/>
<path d="M218.268 209.18V201.717H220.78H223.292V209.18V216.642H220.78H218.268V209.18Z" fill="#123B33"/>
<path d="M125.611 200.135C124.783 200.002 124.266 199.751 123.911 199.337C123.601 198.968 123.542 198.731 123.542 198.007C123.542 196.337 124.266 195.732 126.202 195.746C127.99 195.746 128.729 196.308 128.832 197.712C128.906 198.776 128.626 199.396 127.857 199.781C127.266 200.076 126.217 200.239 125.611 200.135Z" fill="#123B33"/>
<path d="M220.189 200.135C219.361 200.002 218.844 199.751 218.489 199.337C218.179 198.968 218.12 198.731 218.12 198.007C218.12 196.337 218.844 195.732 220.78 195.746C222.568 195.746 223.307 196.308 223.41 197.712C223.484 198.776 223.203 199.396 222.435 199.781C221.844 200.076 220.794 200.239 220.189 200.135Z" fill="#123B33"/>
<path d="M130.488 191.431C130.281 191.416 128.685 191.313 126.941 191.209C125.197 191.121 123.705 190.988 123.616 190.929C123.542 190.87 123.099 190.781 122.655 190.737C120.261 190.471 119.138 190.308 118.695 190.175C118.429 190.086 117.734 189.924 117.143 189.806C116.552 189.702 115.784 189.54 115.414 189.451C115.045 189.362 114.424 189.229 114.01 189.141C113.611 189.067 113.138 188.934 112.976 188.875C112.813 188.801 112.385 188.668 112.015 188.564C110.597 188.195 103.902 185.919 103.74 185.756C103.695 185.712 103.4 185.594 103.075 185.476C102.75 185.372 102.114 185.106 101.671 184.914C101.228 184.707 100.489 184.367 100.045 184.175C97.5331 183.023 95.4494 181.944 91.2525 179.579C91.0161 179.432 90.691 179.21 90.5284 179.077C90.3659 178.929 90.159 178.811 90.0555 178.811C89.9521 178.811 89.7748 178.722 89.6713 178.619C89.5679 178.515 89.0211 178.146 88.4448 177.806C87.8832 177.451 86.8488 176.772 86.1542 176.284C85.4596 175.796 84.7355 175.294 84.5286 175.146C84.3218 175.013 84.1296 174.865 84.0853 174.821C84.041 174.777 83.6124 174.451 83.1248 174.082C82.6371 173.713 82.2085 173.387 82.1642 173.328C82.1199 173.284 81.9573 173.151 81.78 173.033C81.4696 172.826 80.7012 172.19 78.5584 170.314C76.9329 168.91 72.2631 164.284 71.0661 162.88C69.7213 161.299 66.9726 157.871 66.5589 157.235C66.3815 156.955 65.8939 156.26 65.4801 155.684C65.0663 155.122 64.623 154.428 64.49 154.176C64.357 153.91 64.1944 153.689 64.1205 153.689C64.0466 153.689 63.9875 153.615 63.9875 153.541C63.9875 153.452 63.7659 153.024 63.4851 152.58C63.2043 152.152 62.6871 151.295 62.3472 150.704C62.0073 150.112 61.5935 149.388 61.431 149.108C60.5739 147.615 57.3375 140.95 57.3375 140.67C57.3375 140.596 57.2784 140.418 57.2045 140.271C57.0715 140.034 56.776 139.295 56.0223 137.285C55.845 136.842 55.6677 136.251 55.6233 135.985C55.5642 135.719 55.4608 135.468 55.4017 135.423C55.3278 135.379 55.2687 135.187 55.2687 134.995C55.2687 134.803 55.2095 134.611 55.1504 134.566C55.0765 134.522 54.9435 134.123 54.8401 133.68C54.7367 133.222 54.6037 132.823 54.5298 132.778C54.4707 132.734 54.3672 132.453 54.3229 132.158C54.2047 131.566 53.983 130.768 53.7761 130.266C53.7022 130.103 53.584 129.645 53.5101 129.232C53.2441 127.931 53.185 127.606 53.0963 127.384C52.919 126.956 52.4461 124.783 52.2244 123.394C52.1062 122.626 51.9437 121.591 51.855 121.104C50.8501 114.808 50.8501 105.351 51.855 98.7154C52.4461 94.7845 52.6087 93.9717 53.2145 91.5482C53.2884 91.2231 53.4214 90.632 53.5101 90.2182C53.584 89.8192 53.717 89.3463 53.7909 89.1837C53.8648 89.0212 54.0421 88.3857 54.1751 87.7798C54.3081 87.174 54.4707 86.6124 54.5445 86.5237C54.6037 86.4498 54.7514 86.0065 54.8697 85.5632C55.1652 84.4992 55.6824 82.9771 56.0075 82.2382C56.1405 81.9131 56.3031 81.455 56.3622 81.2185C56.4657 80.8195 56.909 79.7407 57.2045 79.1792C57.2784 79.0314 57.3375 78.8393 57.3375 78.7506C57.3375 78.4403 60.4409 72.3075 61.6674 70.1943C63.3225 67.3422 63.8545 66.4703 64.8003 65.0664C65.0811 64.6378 65.3175 64.2536 65.3175 64.1945C65.3175 64.1502 65.4653 63.9137 65.6426 63.6921C65.8348 63.4704 66.086 63.1305 66.2042 62.9532C66.3224 62.7611 67.2091 61.5641 68.1549 60.308C71.2286 56.1997 75.529 51.5595 78.9131 48.6926C79.7702 47.9685 80.5386 47.3035 80.6273 47.2148C80.716 47.141 81.0411 46.875 81.3514 46.6237C81.647 46.3873 81.9721 46.1065 82.0755 46.0178C82.2824 45.8257 84.4695 44.1854 84.972 43.8455C85.1789 43.7125 85.8143 43.284 86.3759 42.8997C86.9522 42.5155 87.4842 42.1608 87.5581 42.087C88.1049 41.6584 88.6516 41.2742 88.962 41.0968C89.1689 40.9786 90.0999 40.4171 91.0309 39.8555C92.553 38.9245 93.4988 38.4073 97.0159 36.6044C98.3459 35.9246 100.4 34.9788 101.819 34.4025C102.425 34.1661 103.075 33.9001 103.267 33.8262C103.444 33.7523 103.769 33.6193 104.006 33.5306C104.227 33.442 104.508 33.309 104.626 33.2498C104.759 33.1907 105.085 33.0873 105.365 33.0282C105.646 32.9691 105.971 32.8656 106.104 32.8065C106.784 32.4666 108.025 32.0381 109.577 31.6243C110.139 31.4617 110.744 31.2696 110.907 31.1957C111.188 31.0627 112.119 30.8263 113.124 30.6342C113.375 30.5898 113.597 30.5012 113.641 30.4421C113.685 30.383 114.202 30.2647 114.808 30.1613C115.414 30.0726 116.212 29.8953 116.582 29.7918C116.951 29.6736 117.764 29.4963 118.37 29.4076C118.976 29.3042 119.641 29.1712 119.848 29.0973C120.439 28.9052 123.439 28.5357 127.163 28.2106C129.527 27.989 138.822 27.989 140.536 28.1958C143.403 28.5357 146.034 28.9347 147.556 29.2451C147.97 29.3337 148.664 29.4667 149.122 29.5406C149.566 29.6145 150.245 29.7771 150.615 29.8953C150.984 30.0283 151.635 30.1761 152.048 30.2352C152.462 30.2943 152.802 30.383 152.802 30.4421C152.802 30.5012 153.024 30.5898 153.29 30.6342C154.102 30.7672 155.226 31.048 155.536 31.181C155.698 31.2696 156.201 31.4174 156.644 31.5356C157.472 31.7573 159.127 32.2893 159.674 32.511C159.836 32.5848 160.309 32.7474 160.708 32.8804C161.122 33.0282 161.654 33.2203 161.89 33.3237C162.142 33.4272 162.94 33.7671 163.664 34.0626C165.88 34.9641 171.082 37.4615 171.274 37.698C171.319 37.7571 171.614 37.9196 171.939 38.097C173.092 38.6733 176.24 40.491 176.668 40.8308C176.757 40.89 177.422 41.3333 178.146 41.821C178.885 42.2938 179.55 42.752 179.624 42.8258C179.712 42.8997 179.978 43.0771 180.215 43.2396C180.466 43.3874 180.762 43.6091 180.88 43.6977C180.998 43.8012 181.766 44.3923 182.579 45.0277C186.894 48.3823 191.313 52.5644 194.254 56.0815C194.727 56.6578 195.303 57.3228 195.525 57.5593C195.968 58.0322 196.337 58.5051 197.756 60.441C198.258 61.1355 198.717 61.7266 198.761 61.771C198.82 61.8153 199.352 62.5837 199.958 63.4704C200.564 64.3718 201.096 65.1698 201.17 65.2437C201.229 65.3324 201.495 65.7314 201.746 66.1304C201.997 66.5442 202.308 67.0318 202.455 67.2387C202.588 67.4456 202.958 68.0663 203.283 68.6131C203.593 69.1746 203.992 69.8396 204.14 70.0908C204.731 71.0662 207.731 77.1103 207.997 77.8492C208.145 78.263 208.322 78.6176 208.381 78.6176C208.426 78.6176 208.514 78.8097 208.559 79.0462C208.603 79.2678 208.854 79.9033 209.091 80.4501C209.342 80.9968 209.549 81.4993 209.549 81.5732C209.549 81.6618 209.623 81.8392 209.696 81.9869C210.125 82.7111 212.002 88.8586 212.445 90.9275C212.549 91.4743 212.711 92.0358 212.785 92.1836C212.844 92.3166 212.948 92.7008 213.007 93.026C213.317 94.9323 213.435 95.5677 213.553 95.8337C213.686 96.1441 213.952 98.213 214.085 99.9715C214.115 100.548 214.204 101.08 214.278 101.154C214.455 101.39 214.647 106.415 214.632 110.316C214.603 113.759 214.425 116.922 214.145 119.035C214.071 119.611 213.923 120.734 213.834 121.547C213.746 122.36 213.613 123.158 213.539 123.32C213.406 123.646 213.169 124.872 213.021 125.951C212.977 126.335 212.844 126.867 212.726 127.133C212.622 127.399 212.489 127.946 212.43 128.345C212.371 128.759 212.268 129.158 212.209 129.232C212.15 129.32 211.987 129.911 211.854 130.562C211.706 131.212 211.544 131.877 211.47 132.039C211.352 132.335 210.775 134.271 210.642 134.847C210.598 135.01 210.509 135.276 210.435 135.438C210.288 135.793 209.77 137.226 209.43 138.246C209.297 138.66 209.15 139.014 209.105 139.059C209.061 139.103 208.943 139.399 208.825 139.724C208.721 140.049 208.47 140.67 208.278 141.098C208.086 141.527 207.923 141.911 207.923 141.955C207.923 141.985 207.583 142.738 207.169 143.61C205.204 147.763 203.224 151.295 200.785 154.945C199.795 156.423 197.697 159.334 197.431 159.6C197.387 159.644 197.091 160.014 196.781 160.413C196.456 160.826 196.13 161.225 196.042 161.299C195.953 161.388 195.658 161.713 195.377 162.038C193.367 164.432 189.939 167.949 187.471 170.166C186.835 170.742 186.229 171.274 186.141 171.363C186.008 171.481 182.771 174.156 182.062 174.717C180.422 176.033 175.161 179.535 173.786 180.244C173.506 180.377 173.181 180.584 173.077 180.688C172.974 180.791 172.826 180.88 172.752 180.88C172.693 180.88 172.205 181.146 171.703 181.471C171.186 181.796 170.654 182.106 170.535 182.151C170.417 182.195 169.501 182.624 168.511 183.111C167.521 183.584 166.649 183.983 166.575 183.983C166.486 183.983 166.176 184.116 165.851 184.264C164.669 184.855 162.363 185.889 161.521 186.2C161.24 186.303 160.945 186.436 160.856 186.495C160.782 186.554 160.206 186.747 159.6 186.924C158.994 187.101 157.767 187.485 156.866 187.781C154.782 188.446 153.408 188.83 152.211 189.081C151.679 189.2 150.955 189.362 150.585 189.451C150.216 189.54 149.418 189.702 148.812 189.82C148.206 189.939 147.541 190.101 147.334 190.19C147.009 190.323 146.241 190.426 143.64 190.722C143.196 190.766 142.694 190.855 142.531 190.929C141.674 191.269 132.483 191.668 130.488 191.431ZM130.31 183.732C130.768 183.422 131.182 183.126 131.226 183.082C131.271 183.023 131.507 182.86 131.744 182.712C132.601 182.18 137.359 178.53 138.763 177.333C145.162 171.836 151.28 165.836 155.639 160.767C157.28 158.846 161.683 153.29 163.457 150.881C164.964 148.827 169.264 142.458 170.255 140.817C170.476 140.463 171.038 139.546 171.496 138.778L172.353 137.389L171.984 137.079C171.791 136.901 171.333 136.517 170.964 136.207C170.609 135.882 169.752 135.261 169.072 134.803C167.609 133.842 167.846 133.724 166.59 136.177C165.467 138.379 163.058 142.709 161.861 144.645C159.511 148.457 155.492 154.117 153.393 156.57C151.93 158.27 149.181 160.93 147.851 161.92C146.98 162.57 146.714 162.703 146.196 162.703H145.561V162.142C145.561 161.536 146.507 159.6 149.846 153.319C152.004 149.255 155.728 141.911 157.457 138.32C158.092 136.975 159.142 134.818 159.777 133.532C160.413 132.231 160.93 131.094 160.93 130.975C160.93 130.813 158.89 129.66 158.802 129.778C158.772 129.808 158.24 130.754 157.605 131.892C153.748 138.778 148.472 147.216 143.078 155.093C135.881 165.6 129.084 174.422 122.921 181.249L120.912 183.466L122.049 183.643C122.67 183.747 123.867 183.894 124.695 183.968C125.537 184.042 126.261 184.146 126.32 184.19C126.365 184.234 127.089 184.279 127.931 184.279C129.453 184.279 129.468 184.279 130.31 183.732ZM144.305 183.702C145.206 183.54 146.27 183.333 146.669 183.244C147.083 183.156 147.911 182.993 148.531 182.89C150.319 182.564 151.723 182.165 155.979 180.762C160.235 179.343 161.196 178.973 161.477 178.648C161.61 178.486 161.61 177.466 161.506 174.378C161.417 172.146 161.299 169.087 161.255 167.595L161.151 164.89L160.368 165.806C157.472 169.235 149.551 177.304 145.709 180.732C144.068 182.195 143.788 182.446 142.561 183.51C142.059 183.939 142.029 183.983 142.339 183.983C142.531 183.983 143.418 183.85 144.305 183.702ZM115.193 178.929C121.458 172.604 128.581 163.693 136.842 151.915C137.832 150.497 138.778 149.152 138.926 148.945C139.073 148.738 137.714 150.039 135.896 151.827C129.054 158.624 124.296 163.087 119.537 167.225C113.537 172.427 109.991 175.294 106.577 177.688C105.897 178.161 105.395 178.604 105.469 178.663C105.587 178.767 107.094 179.358 109.725 180.318C111.971 181.146 112.385 181.294 112.606 181.308C112.725 181.308 113.892 180.244 115.193 178.929ZM169.649 174.54C170.506 174.067 172.205 172.988 173.417 172.161C175.412 170.787 176.387 170.077 178.855 168.26C180.525 167.033 184.279 163.841 184.279 163.649C184.279 163.191 182.653 156.57 181.973 154.206C180.776 150.112 179.579 146.95 178.072 143.802L177.392 142.413L176.89 143.211C174.806 146.507 170.92 152.226 168.998 154.782L166.678 157.871L166.767 158.92C166.9 160.664 167.151 163.989 167.299 166.028C167.624 170.388 167.713 171.732 167.816 173.535C167.875 174.57 167.964 175.412 168.008 175.412C168.053 175.412 168.792 175.028 169.649 174.54ZM108.291 166.9C108.809 166.501 109.843 165.673 110.567 165.068C111.306 164.462 112.222 163.738 112.592 163.457C112.961 163.176 114.143 162.215 115.193 161.299C116.257 160.398 117.764 159.127 118.562 158.477C120.882 156.615 121.384 156.186 122.522 155.166C126.719 151.369 128.862 149.521 130.872 147.911C132.128 146.921 136.413 143.359 136.546 143.211C136.724 143.004 139.472 140.699 140.019 140.315C140.344 140.078 141.305 139.31 142.162 138.615C143.019 137.921 144.054 137.138 144.467 136.872C144.866 136.62 145.369 136.236 145.576 136.015C145.93 135.616 147.319 134.522 148.162 133.931C148.694 133.576 152.861 130.163 153.319 129.704C153.556 129.468 153.497 129.483 152.95 129.778C149.462 131.699 142.65 135.867 141.423 136.842C141.128 137.079 140.064 137.817 139.059 138.497C134.817 141.364 130.059 145.191 123.32 151.176C120.513 153.659 112.799 161.417 109.651 164.92C108.144 166.59 107.02 167.875 107.139 167.787C107.257 167.713 107.789 167.314 108.291 166.9ZM101.804 163.22C105.232 159.363 108.099 156.437 116.596 148.088L118.444 146.285L117.867 145.812C114.468 143.063 112.547 141.261 110.478 138.926C108.38 136.532 106.681 134.404 104.996 132.054C104.671 131.596 104.331 131.227 104.242 131.227C103.961 131.227 101.316 132.364 99.4246 133.31C97.8139 134.108 96.7055 134.729 95.7302 135.394C94.0751 136.502 91.9175 138.394 91.0013 139.546L90.558 140.093L91.1491 141.098C92.819 143.921 95.0209 148.206 95.7598 150.068C96.6021 152.137 98.3163 157.767 98.5675 159.23C98.6414 159.644 98.9074 161.033 99.1439 162.334C99.3951 163.634 99.602 164.89 99.602 165.127C99.602 165.496 99.6315 165.526 99.8532 165.348C99.9862 165.23 100.858 164.284 101.804 163.22ZM192.081 154.886C193.618 152.979 195.303 150.541 196.677 148.251C197.505 146.891 200.638 140.773 200.978 139.872C201.125 139.502 201.007 139.399 200.741 139.62C200.667 139.694 199.411 140.241 197.948 140.847C196.485 141.438 194.948 142.132 194.534 142.384C193.086 143.241 192.805 143.418 192.081 143.906C191.15 144.497 190.264 144.571 190.101 144.054C189.643 142.576 187.559 138.542 186.2 136.502C182.136 130.414 177.51 126.276 171.23 123.114C169.634 122.301 169.575 122.256 169.53 121.769C169.486 121.192 170.654 117.468 171.525 115.414C172.25 113.685 174.171 109.873 175.205 108.085C175.663 107.287 176.18 106.385 176.343 106.104C176.757 105.365 178.368 102.528 178.515 102.262C178.722 101.937 179.978 99.3656 180.407 98.4198C181.116 96.8238 183.244 90.0852 183.244 89.3758C183.244 89.2724 183.318 88.9325 183.407 88.6222C183.555 88.0902 183.584 88.0606 184.101 88.1049C184.619 88.1493 184.678 88.2084 185.18 89.2133C185.978 90.8388 187.367 95.1835 187.884 97.681C187.973 98.1243 188.106 98.4642 188.18 98.4198C188.269 98.3755 188.948 97.5184 189.732 96.4987C192.466 92.8782 193.855 91.3413 199.781 85.2824C202.175 82.8441 202.115 82.9475 201.79 81.9722C201.48 81.0116 199.189 76.268 197.992 74.1104C194.062 67.0318 188.771 60.1897 183.377 55.1948C181.855 53.7762 180.791 52.8304 180.17 52.3575C179.89 52.1211 179.151 51.5447 178.53 51.0423C175.9 48.9438 171.91 46.2838 168.659 44.4366C166.767 43.3431 161.979 40.9343 161.743 40.9343C161.683 40.9343 161.358 40.8013 161.018 40.6387C159.954 40.1511 156.925 38.9984 155.905 38.6881C155.373 38.5255 154.679 38.2891 154.354 38.1708C154.029 38.0378 153.57 37.8901 153.319 37.8162C153.083 37.7571 152.506 37.5945 152.063 37.4615C151.62 37.3285 151.014 37.166 150.733 37.0921C150.452 37.0182 149.95 36.8852 149.625 36.7965C149.3 36.6931 148.576 36.5305 147.999 36.4271C147.438 36.3088 146.669 36.1463 146.3 36.0576C144.541 35.6291 140.581 35.0971 137.211 34.8606C134.877 34.6833 130.931 34.7572 127.236 35.0084C125.448 35.1414 122.301 35.5256 121.916 35.6734C121.798 35.7177 121.133 35.8655 120.439 35.9837C118.769 36.2941 118.045 36.4566 116.892 36.7226C113.597 37.5206 111.882 37.9935 111.203 38.2743C111.04 38.3334 110.449 38.5403 109.873 38.7176C108.882 39.028 106.03 40.1215 104.257 40.89C100.4 42.5598 96.7646 44.481 93.2328 46.7272C92.0653 47.4513 91.4151 47.9242 88.6664 49.8896C86.435 51.5004 83.2134 54.3082 80.5239 57.0273C79.253 58.2982 78.6471 58.9484 76.8442 60.973C76.2531 61.6232 74.066 64.3423 73.7409 64.83C73.6226 64.9925 72.8099 66.1452 71.9232 67.357C71.0513 68.5835 70.342 69.618 70.342 69.6623C70.342 69.7066 70.0464 70.1795 69.677 70.7263C69.3075 71.2583 69.012 71.7164 69.012 71.746C69.012 71.7903 68.7903 72.1597 68.5391 72.5883C67.1056 74.8936 63.692 81.9574 63.692 82.5928C63.692 82.7554 63.9432 83.0362 66.8396 86.0656C72.2779 91.7551 74.3024 94.0752 76.7408 97.4445C77.2136 98.0947 77.6126 98.5085 77.6422 98.4051C77.6718 98.2868 77.8786 97.4297 78.0855 96.4987C78.4698 94.888 79.5781 91.3708 80.0362 90.3364C80.1544 90.0704 80.4056 89.435 80.5978 88.9325C80.9376 88.0163 80.9672 88.0015 81.5435 87.9572C82.1938 87.9128 82.1938 87.9128 82.3859 89.036C82.4302 89.3611 82.5484 89.834 82.6223 90.0704C82.6962 90.3216 82.9918 91.3856 83.2873 92.4348C84.5878 97.1785 85.4449 99.2326 87.9275 103.518C90.7205 108.351 91.9914 110.656 92.8929 112.533C93.8239 114.469 94.9174 117.188 95.1095 118C95.1686 118.252 95.2721 118.518 95.3312 118.606C95.5529 118.872 95.9519 120.779 95.9666 121.606L95.9814 122.404L94.6514 123.099C90.3215 125.315 87.8241 127.133 84.6912 130.325C82.5189 132.557 80.7308 134.788 79.1495 137.241C78.4845 138.276 76.6669 141.807 75.8984 143.536C75.5438 144.334 75.4994 144.379 74.997 144.379C74.598 144.379 74.1842 144.172 73.268 143.551C71.8493 142.591 70.3272 141.807 67.3864 140.536C64.3126 139.221 64.5639 139.295 64.756 139.768C64.8594 139.99 65.8052 141.896 66.8692 144.009C69.2632 148.768 71.3173 151.886 74.9822 156.378C75.5585 157.088 76.0758 157.664 76.1201 157.664C76.1644 157.679 76.3122 157.161 76.46 156.541C76.6078 155.905 76.7851 155.196 76.8442 154.945C76.9181 154.708 77.258 153.541 77.5979 152.359C79.4599 145.886 81.4253 141.423 84.1001 137.64C85.371 135.867 87.4842 133.576 89.0506 132.291C91.1639 130.576 92.8485 129.32 93.1736 129.217C93.3362 129.158 93.6318 128.995 93.8386 128.862C94.5036 128.389 98.405 126.498 98.7153 126.498C98.7892 126.498 99.2916 126.276 99.8236 125.995C100.37 125.714 101.287 125.345 101.863 125.168C102.454 124.99 103.607 124.503 104.449 124.074L105.971 123.32L105.897 122.803C105.661 121.429 105.498 118.459 105.587 117.335C105.912 112.887 107.39 109.488 110.316 106.415C110.966 105.735 111.912 104.878 112.429 104.523L113.345 103.858L112.267 102.661C110.804 101.006 110.242 100.297 109.547 99.1144C108.173 96.8386 106.932 93.2476 106.459 90.2477C106.341 89.4202 106.163 88.3118 106.075 87.7798C105.897 86.6567 106.001 81.1446 106.222 79.061C106.415 77.3615 107.227 74.14 107.966 72.1745C109.503 68.0663 111.409 65.1551 114.468 62.2143C117.128 59.6873 119.345 58.2243 122.182 57.1307C122.951 56.8352 123.778 56.5101 124.03 56.3918C124.606 56.1406 126.586 55.653 128.345 55.3278C130.355 54.9584 137.034 54.9584 138.763 55.3278C147.053 57.0864 154.117 63.101 157.457 71.2435C157.886 72.2927 158.595 74.4798 158.831 75.5143C158.92 75.8837 159.053 76.4748 159.142 76.8443C159.555 78.6767 159.792 81.9426 159.703 85.0312C159.6 89.0359 159.245 91.2822 158.24 94.4003C157.102 97.9322 155.817 100.223 153.659 102.513L152.462 103.784L152.832 104.095C155.846 106.622 156.216 107.021 157.457 109.001C158.388 110.479 159.156 112.267 159.703 114.203C160.087 115.577 160.102 115.769 160.073 118.887C160.073 120.675 160.043 122.404 160.014 122.729L159.969 123.32L161.151 123.808C161.802 124.089 162.895 124.547 163.59 124.828C169.767 127.355 173.801 129.512 175.619 131.256C175.737 131.36 176.195 131.744 176.639 132.113C177.762 133.015 180.23 135.63 181.294 137.034C184.308 141.039 187.175 147.866 189.008 155.388C189.259 156.452 189.51 157.427 189.554 157.575C189.643 157.886 189.865 157.649 192.081 154.886ZM125.123 140.773L125.596 140.344L125.271 140.093C125.094 139.96 124.281 139.399 123.468 138.837C122.655 138.276 121.68 137.581 121.296 137.3C120.912 137.005 120.276 136.532 119.892 136.251C118.252 135.054 112.459 130.251 112.237 129.897C112.193 129.823 111.882 129.557 111.542 129.276L110.907 128.788L111.276 129.305C114.35 133.724 118.325 137.921 122.36 140.95L123.749 142.014L124.207 141.615C124.443 141.394 124.857 141.009 125.123 140.773ZM132.97 134.699C133.561 134.3 134.684 133.502 135.482 132.941C138.261 130.975 141.955 128.581 143.566 127.709C146.462 126.143 148.221 125.109 148.221 124.976C148.221 124.902 147.866 124.458 147.423 123.985C145.945 122.375 144.733 120.232 144.039 118C143.256 115.533 143.049 113.996 143.049 110.818L143.034 108.099L142.635 108.617C139.517 112.636 138.261 113.981 135.571 116.301C135.143 116.685 133.502 117.941 131.891 119.138C130.428 120.217 127.739 121.887 125.803 122.907C124.798 123.439 123.985 123.897 123.985 123.926C123.985 124.045 125.714 123.217 126.867 122.552C127.68 122.079 128.271 121.843 128.759 121.798L129.453 121.724V122.316C129.453 122.862 129.394 122.936 128.463 123.646C126.645 125.035 121.813 127.769 120.468 128.197C120.276 128.256 120.158 128.33 120.202 128.389C120.306 128.478 121.266 128.064 122.98 127.207C123.66 126.867 124.31 126.645 124.636 126.645C125.168 126.645 125.168 126.645 125.168 127.281C125.153 127.842 125.094 127.946 124.458 128.419C124.074 128.7 123.69 129.01 123.601 129.084C123.512 129.172 123.202 129.394 122.907 129.601C122.611 129.808 122.36 130.015 122.36 130.059C122.36 130.177 124.68 131.773 128.108 133.99L131.138 135.955L131.522 135.689C131.729 135.556 132.394 135.113 132.97 134.699ZM198.539 132.276C200.002 131.744 200.18 131.626 202.012 129.985C202.736 129.35 203.401 128.862 203.578 128.862C204.288 128.862 205.839 125.729 206.815 122.36C207.007 121.68 207.14 121.074 207.096 121.045C207.066 121 206.844 121.074 206.623 121.207C206.002 121.562 203.667 122.508 203.386 122.508C203.135 122.508 202.308 122.7 200.091 123.247C199.396 123.424 198.569 123.616 198.244 123.69C196.396 124.089 193.544 125.286 191.86 126.394C190.589 127.222 188.564 129.187 187.485 130.665C187.027 131.286 186.643 131.832 186.643 131.862C186.643 131.906 187.086 131.98 187.648 132.025C188.195 132.084 189.466 132.261 190.485 132.409C191.505 132.571 192.539 132.734 192.776 132.763C193.027 132.793 194.121 132.808 195.214 132.778C197.032 132.749 197.327 132.704 198.539 132.276ZM76.0314 132.409C76.9329 132.246 77.8934 132.113 78.1742 132.113C78.455 132.113 78.7653 132.054 78.8688 131.995C79.3121 131.714 75.5733 127.562 73.8591 126.453C71.539 124.931 68.9676 123.926 65.5392 123.158C64.5639 122.951 63.5294 122.715 63.2487 122.655C61.8891 122.345 60.8842 122.005 59.7759 121.488C58.4015 120.838 58.4607 120.764 58.9631 122.434C59.6577 124.724 60.4557 126.512 61.5197 128.153C62.0664 128.995 62.362 129.291 62.6575 129.365C62.8792 129.409 63.4851 129.808 64.0023 130.251C65.0959 131.212 66.2338 131.847 67.549 132.246C68.9676 132.675 68.8938 132.675 71.7459 132.69C73.8 132.69 74.7753 132.63 76.0314 132.409ZM81.8834 125.951C83.5829 124.148 84.5139 122.434 85.2084 119.833C86.4645 115.134 86.1985 109.533 84.4843 104.553C84.0705 103.37 82.6075 100.193 82.4745 100.193C82.3268 100.193 82.0312 100.725 80.8785 103.045C78.3515 108.114 77.2136 111.868 77.0363 115.813C76.8738 119.124 77.4796 121.458 79.1791 124.133C79.8441 125.197 80.9524 126.498 81.1889 126.498C81.2775 126.498 81.6026 126.246 81.8834 125.951ZM185.505 125.508C187.781 122.626 188.609 120.261 188.623 116.597C188.623 112.326 187.397 108.114 184.5 102.484C183.067 99.7055 183.259 99.809 182.461 101.479C181.663 103.193 180.407 106.888 180.067 108.528C179.52 111.217 179.417 115.089 179.845 117.188C180.377 119.803 181.131 122.212 181.766 123.306C182.328 124.281 184.22 126.498 184.5 126.498C184.619 126.498 185.062 126.054 185.505 125.508ZM121.547 125.182C122.227 124.916 124 124 123.838 123.985C123.793 123.985 122.995 124.311 122.064 124.724C120.409 125.434 120.054 125.759 121.547 125.182ZM71.2286 114.971C71.3321 114.528 71.4651 113.892 71.5538 113.567C72.2188 110.715 72.3961 107.804 72.0414 105.602C71.2582 100.577 68.879 96.7647 63.3521 91.6073L61.1207 89.5236L60.8547 90.5285C60.7217 91.0901 60.4557 92.2427 60.2931 93.0998C60.1305 93.957 59.9237 94.9471 59.8498 95.3165C59.7759 95.686 59.6429 97.0455 59.5394 98.346C59.3325 101.169 59.5542 103.164 60.3079 105.395C61.2389 108.158 62.3915 109.887 64.6378 111.823C65.687 112.725 70.8149 116.02 70.9479 115.887C71.007 115.828 71.1252 115.414 71.2286 114.971ZM196.057 115.222C198.199 113.966 199.441 113.168 199.884 112.784C200.135 112.562 200.608 112.193 200.918 111.942C202.899 110.39 204.583 107.966 205.47 105.365C206.652 101.907 206.549 98.7154 205.056 91.7107C204.849 90.7354 204.613 89.8783 204.539 89.8044C204.465 89.7305 204.007 90.0556 203.401 90.6024C198.199 95.3461 196.057 98.1095 194.579 101.967C193.692 104.272 193.441 105.646 193.441 108.144C193.441 110.36 193.544 111.114 194.254 114.084C194.446 114.941 194.623 115.68 194.623 115.754C194.623 115.976 195.022 115.828 196.057 115.222ZM136.413 110.109C137.98 109.607 141.068 107.612 142.413 106.223C143.61 104.981 145.132 102.765 146.004 101.006C147.009 98.9223 147.452 97.6662 147.984 95.2722C148.324 93.7648 148.383 93.1885 148.383 90.9127C148.398 88.1788 148.28 87.3956 147.748 86.4351L147.438 85.8883L146.167 86.9966C144.704 88.2675 144.32 88.4892 143.196 88.7552C141.142 89.2428 138.911 88.8882 137.773 87.8833C137.344 87.4991 137.108 87.4104 136.561 87.4104H135.881L135.837 86.7306C135.793 86.0952 135.837 86.0213 136.428 85.4745C136.783 85.1642 137.211 84.7947 137.404 84.6765C137.729 84.4696 137.714 84.4548 136.99 84.514C135.881 84.5878 135.66 84.3366 135.66 82.9771C135.66 82.386 135.734 81.7062 135.822 81.455C136.177 80.4205 137.729 79.9476 141.098 79.8146L143.507 79.726L141.911 78.5437C137.67 75.4108 134.788 71.6721 133.221 67.2683L132.896 66.3373L132.409 67.5638C130.768 71.7607 127.739 75.6621 123.985 78.4403C123.054 79.1348 122.242 79.7407 122.182 79.7851C122.123 79.8294 123.35 79.859 124.902 79.8294C127.68 79.7851 127.724 79.7851 128.507 80.1693C129.63 80.7161 130.044 81.4402 130.044 82.9032C130.044 84.2627 129.852 84.5287 128.877 84.5287H128.197L128.744 84.8982C129.468 85.3858 129.896 86.1247 129.896 86.8784V87.4991L129.187 87.4695C128.611 87.4399 128.374 87.4991 127.961 87.8094C126.852 88.6517 126.202 88.8734 124.68 88.9325C122.242 89.036 120.912 88.4892 118.784 86.4794C118.266 85.9917 118.237 85.9917 118.089 86.2725C117.542 87.2774 117.468 87.9276 117.542 90.4842C117.631 93.9274 117.793 94.888 118.695 97.681C120.054 101.863 122.212 104.952 125.729 107.759C127.207 108.942 129.719 110.109 131.522 110.449C132.423 110.612 135.453 110.405 136.413 110.109Z" fill="#123B33"/>
<path d="M130.561 106.563C130.236 106.415 129.749 106.075 129.497 105.809C129.084 105.395 129.01 105.233 129.01 104.612C129.01 103.932 129.025 103.903 129.497 103.814C129.749 103.77 131.507 103.74 133.369 103.77L136.768 103.814L136.812 104.435C136.857 104.967 136.783 105.129 136.325 105.646C135.438 106.622 134.803 106.843 132.837 106.843C131.507 106.843 131.02 106.784 130.561 106.563Z" fill="#123B33"/>
<path d="M128.744 103.223C127.03 102.913 126.941 102.853 126.941 101.952C126.941 100.858 127.266 100.592 129.098 100.267C130.325 100.046 131.079 100.016 133.813 100.09C137.167 100.164 137.817 100.282 138.438 100.829C138.689 101.065 138.763 101.287 138.763 101.908C138.763 102.351 138.689 102.735 138.571 102.824C137.965 103.326 130.931 103.607 128.744 103.223Z" fill="#123B33"/>
<path d="M130.709 98.5234C130.31 98.3313 129.793 97.9914 129.571 97.7845C129.202 97.4446 129.157 97.2968 129.157 96.4545C129.157 95.9225 129.231 95.4496 129.335 95.3462C129.616 95.0654 130.842 95.1393 131.699 95.4792C132.63 95.8486 133.546 95.7895 134.463 95.3314C135.231 94.9324 136.118 94.9324 136.472 95.3166C136.842 95.7304 136.709 96.9126 136.221 97.5628C135.571 98.42 134.625 98.7894 132.926 98.8337C131.625 98.8633 131.359 98.8337 130.709 98.5234Z" fill="#123B33"/>
<path d="M131.729 79.5193C131.093 79.3568 130.384 78.8248 130.118 78.3223C129.97 78.0415 129.896 77.4652 129.896 76.6524C129.896 75.6032 129.956 75.3372 130.236 74.9234C130.768 74.1107 131.655 73.7412 133.029 73.7412C134.359 73.7412 134.877 73.9333 135.394 74.6574C135.689 75.086 135.734 75.3224 135.734 76.4899C135.734 77.7164 135.704 77.8642 135.335 78.3519C134.729 79.1351 134.019 79.5193 133.029 79.5932C132.571 79.6228 131.98 79.5784 131.729 79.5193Z" fill="#123B33"/>
<path d="M121.828 184.131C120.912 183.998 120.099 183.821 120.01 183.777C119.907 183.703 120.395 183.067 121.37 182.018C127.99 174.821 134.921 165.925 142.635 154.649C148.044 146.743 153.26 138.409 157.221 131.33C157.901 130.133 158.507 129.113 158.58 129.069C158.654 129.025 159.378 129.335 160.191 129.749C161.728 130.547 161.95 130.813 161.373 131.227C161.211 131.345 161.078 131.522 161.078 131.626C161.078 131.729 161.019 131.818 160.945 131.818C160.871 131.818 160.768 131.98 160.723 132.187C160.679 132.379 160.502 132.66 160.354 132.808C160.206 132.956 160.043 133.251 159.984 133.488C159.94 133.709 159.822 133.887 159.748 133.887C159.659 133.887 159.6 133.99 159.6 134.108C159.6 134.433 159.024 135.512 158.861 135.512C158.773 135.512 158.713 135.645 158.713 135.808C158.713 135.97 158.654 136.103 158.566 136.103C158.492 136.103 158.418 136.207 158.418 136.325C158.418 136.621 157.945 137.581 157.797 137.581C157.738 137.581 157.679 137.685 157.679 137.803C157.679 137.921 157.62 138.024 157.531 138.024C157.457 138.024 157.383 138.128 157.383 138.246C157.383 138.586 156.364 140.537 156.201 140.537C156.113 140.537 156.053 140.64 156.053 140.788C156.053 141.01 154.339 144.379 154.147 144.527C153.955 144.674 151.768 148.561 151.768 148.768C151.768 148.871 151.709 148.96 151.62 148.96C151.546 148.96 151.472 149.049 151.472 149.167C151.472 149.285 151.413 149.403 151.339 149.433C151.147 149.507 149.699 151.886 149.699 152.137C149.699 152.255 149.64 152.359 149.551 152.359C149.477 152.359 149.403 152.462 149.403 152.581C149.403 152.699 149.344 152.802 149.256 152.802C149.182 152.802 149.078 152.965 149.019 153.172C148.975 153.379 148.842 153.6 148.753 153.659C148.502 153.792 146.596 156.792 146.596 157.029C146.596 157.117 146.492 157.236 146.374 157.295C146.256 157.339 146.152 157.502 146.152 157.635C146.152 157.782 146.019 158.019 145.857 158.167C145.694 158.3 145.561 158.521 145.561 158.639C145.561 158.758 145.502 158.861 145.413 158.861C145.34 158.861 145.266 158.965 145.266 159.083C145.266 159.201 145.192 159.304 145.118 159.304C145.029 159.304 144.881 159.482 144.778 159.718C144.689 159.94 144.527 160.206 144.423 160.309C144.32 160.413 144.231 160.605 144.231 160.723C144.231 160.841 144.172 160.93 144.098 160.93C143.921 160.93 143.197 162.053 143.197 162.334C143.197 162.452 143.138 162.556 143.049 162.556C142.857 162.556 142.428 163.413 142.576 163.501C142.635 163.531 143.212 163.235 143.862 162.836C144.512 162.437 145.118 162.112 145.221 162.112C145.325 162.112 145.413 162.024 145.413 161.905C145.413 161.787 145.606 161.669 145.842 161.639C146.226 161.58 146.271 161.61 146.138 161.832C145.221 163.575 149.995 159.556 152.95 156.127C155.182 153.526 159.438 147.497 161.846 143.492C162.866 141.793 164.979 137.98 166.575 134.936C167.521 133.118 167.551 133.118 169.161 134.138C169.9 134.611 170.757 135.202 171.053 135.468C171.541 135.896 171.57 135.956 171.393 136.266C171.289 136.458 171.082 136.739 170.949 136.887C170.816 137.049 170.624 137.374 170.521 137.64C170.417 137.891 170.24 138.187 170.151 138.29C169.871 138.571 168.467 140.921 168.467 141.113C168.467 141.202 168.408 141.276 168.319 141.276C168.245 141.276 168.171 141.379 168.171 141.497C168.171 141.615 168.038 141.837 167.876 141.97C167.713 142.118 167.58 142.31 167.58 142.413C167.58 142.517 167.521 142.606 167.432 142.606C167.358 142.606 167.285 142.709 167.285 142.827C167.285 142.945 167.225 143.049 167.152 143.049C167.078 143.049 166.989 143.197 166.93 143.389C166.886 143.566 166.649 143.936 166.398 144.202C166.161 144.468 165.955 144.793 165.955 144.911C165.955 145.029 165.895 145.118 165.807 145.118C165.733 145.118 165.526 145.413 165.349 145.783C165.171 146.152 164.979 146.448 164.905 146.448C164.831 146.448 164.772 146.522 164.772 146.596C164.772 146.684 164.639 146.876 164.477 147.039C164.314 147.201 164.181 147.438 164.181 147.556C164.181 147.674 164.122 147.778 164.033 147.778C163.96 147.778 163.886 147.866 163.886 147.97C163.886 148.073 163.753 148.265 163.59 148.413C163.428 148.546 163.295 148.753 163.295 148.871C163.295 148.975 163.058 149.315 162.777 149.61C162.497 149.921 162.26 150.26 162.26 150.379C162.26 150.497 162.157 150.63 162.038 150.674C161.92 150.733 161.817 150.852 161.817 150.97C161.817 151.088 161.758 151.177 161.669 151.177C161.595 151.177 161.521 151.28 161.521 151.398C161.521 151.531 161.418 151.664 161.3 151.709C161.181 151.768 161.078 151.886 161.078 152.004C161.078 152.122 161.019 152.211 160.93 152.211C160.856 152.211 160.782 152.3 160.782 152.418C160.782 152.536 160.664 152.728 160.531 152.832C160.383 152.935 160.176 153.201 160.058 153.438C159.94 153.659 159.792 153.837 159.718 153.837C159.644 153.837 159.526 153.999 159.452 154.206C159.378 154.413 159.245 154.576 159.157 154.576C159.083 154.576 159.009 154.664 159.009 154.782C159.009 154.901 158.906 155.019 158.787 155.078C158.669 155.122 158.566 155.255 158.566 155.374C158.566 155.507 158.433 155.669 158.27 155.758C158.108 155.846 157.975 156.009 157.975 156.142C157.975 156.26 157.871 156.393 157.753 156.438C157.635 156.497 157.531 156.615 157.531 156.718C157.531 156.807 157.295 157.132 157.014 157.428C156.733 157.723 156.497 158.019 156.497 158.078C156.497 158.152 156.364 158.285 156.201 158.388C156.039 158.492 155.906 158.639 155.906 158.713C155.906 158.802 155.728 159.068 155.507 159.304C154.797 160.058 154.576 160.339 154.576 160.457C154.576 160.516 154.28 160.886 153.911 161.285C153.541 161.684 153.246 162.053 153.246 162.097C153.246 162.157 152.95 162.511 152.581 162.91C152.211 163.309 151.916 163.679 151.916 163.738C151.916 163.797 151.664 164.078 151.369 164.373C150.408 165.29 150.142 165.585 150.142 165.777C150.142 165.881 150.083 165.955 150.009 165.955C149.935 165.955 149.3 166.605 148.591 167.403C146.61 169.605 142.724 173.506 140.818 175.191C136.842 178.708 132.705 181.294 128.345 182.993C126.956 183.525 123.971 184.442 123.646 184.412C123.557 184.397 122.73 184.279 121.828 184.131Z" fill="#FAF7E7"/>
<path d="M106.784 179.846C104.908 179.107 104.331 178.826 104.331 178.663C104.331 178.589 105.011 178.043 105.853 177.452C112.208 172.93 120.735 165.644 128.936 157.753C134.847 152.063 139.872 146.995 142.355 144.246C142.901 143.64 143.374 143.182 143.433 143.241C143.478 143.285 143.005 144.083 142.355 145C141.719 145.916 140.995 146.965 140.759 147.334C140.079 148.354 135.291 155.211 134.537 156.245C134.168 156.748 133.783 157.191 133.68 157.236C133.577 157.28 133.089 157.782 132.601 158.344C132.114 158.92 131.493 159.57 131.242 159.807C130.99 160.058 130.784 160.324 130.784 160.428C130.784 160.531 130.488 160.856 130.119 161.166C129.749 161.462 129.454 161.772 129.454 161.846C129.454 161.92 129.055 162.349 128.567 162.807C128.079 163.25 127.68 163.693 127.68 163.782C127.68 163.856 127.045 164.521 126.276 165.26C125.508 165.999 124.872 166.664 124.872 166.752C124.872 166.959 120.986 170.831 120.794 170.831C120.705 170.831 120.277 171.23 119.833 171.718C119.405 172.205 118.961 172.604 118.858 172.604C118.769 172.604 118.444 172.9 118.134 173.269C117.838 173.639 117.513 173.934 117.395 173.934C117.291 173.934 117.07 174.141 116.892 174.378C116.715 174.629 116.479 174.821 116.375 174.821C116.257 174.821 116.094 174.954 116.006 175.117C115.917 175.279 115.755 175.412 115.651 175.412C115.533 175.412 115.415 175.516 115.356 175.634C115.311 175.752 115.178 175.856 115.06 175.856C114.927 175.856 114.764 175.989 114.676 176.151C114.587 176.314 114.425 176.447 114.306 176.447C114.188 176.447 114.085 176.521 114.085 176.594C114.085 176.683 114.026 176.742 113.952 176.742C113.789 176.742 109.592 179.565 109.533 179.727C109.504 179.786 109.4 179.846 109.297 179.846C109.178 179.846 108.927 179.979 108.72 180.141C108.513 180.304 108.321 180.437 108.292 180.422C108.277 180.422 107.597 180.156 106.784 179.846Z" fill="#FAF7E7"/>
<path d="M168.954 175.176C168.792 174.762 169.043 155.684 169.206 155.24C169.294 155.019 170.477 153.157 171.851 151.117C174.437 147.246 177.186 142.871 177.186 142.62C177.186 142.472 177.644 142.162 177.851 142.162C177.925 142.162 179.181 144.733 179.698 145.93C181.087 149.196 182.432 153.482 183.673 158.565C184.619 162.452 184.885 163.812 184.781 164.092C184.693 164.314 180.777 167.624 179.299 168.703C176.831 170.535 175.856 171.23 173.861 172.604C171.644 174.112 169.501 175.412 169.206 175.412C169.117 175.412 169.014 175.309 168.954 175.176Z" fill="#FAF7E7"/>
<path d="M103.548 170.949C103.711 170.757 104.435 169.915 105.159 169.058C109.666 163.753 118.459 154.65 122.877 150.733C129.587 144.763 134.375 140.921 138.616 138.054C139.621 137.374 140.685 136.635 140.98 136.399C142.192 135.453 147.305 132.306 152.359 129.409C155.211 127.784 156.423 127.355 156.423 127.961C156.423 128.079 155.743 128.7 154.901 129.335C154.059 129.971 152.418 131.286 151.236 132.276C150.054 133.251 148.872 134.212 148.606 134.374C147.763 134.966 146.374 136.059 146.02 136.458C145.813 136.68 145.31 137.064 144.911 137.315C144.497 137.581 143.463 138.364 142.606 139.059C141.749 139.754 140.788 140.522 140.463 140.758C139.916 141.143 137.168 143.448 136.99 143.655C136.857 143.803 132.572 147.364 131.316 148.354C129.306 149.965 127.163 151.812 122.966 155.61C121.828 156.63 121.326 157.058 119.006 158.92C118.208 159.571 116.7 160.841 115.636 161.743C114.587 162.659 113.405 163.62 113.036 163.9C112.666 164.181 111.735 164.92 110.967 165.556C108.913 167.24 108.765 167.373 106.06 169.398C103.726 171.171 102.868 171.688 103.548 170.949Z" fill="#FAF7E7"/>
<path d="M100.814 164.846C100.725 164.728 100.4 163.856 100.105 162.895C99.4101 160.575 98.4348 158.048 97.2821 155.551C96.7649 154.428 96.2477 153.142 96.1147 152.714C95.4349 150.379 93.2182 145.827 90.5582 141.29C89.7307 139.872 89.7011 140.019 91.0459 138.542C93.3069 136.074 96.5137 133.916 100.784 131.995C101.996 131.448 104.361 130.488 104.494 130.488C104.597 130.488 105.04 131.049 106.577 133.148C109.577 137.241 113.257 141.202 116.656 143.995C117.469 144.645 118.4 145.443 118.725 145.738L119.331 146.3L117.262 148.325C108.853 156.571 105.646 159.851 102.794 163.073C100.903 165.201 101.036 165.083 100.814 164.846Z" fill="#FAF7E7"/>
<path d="M74.8201 157.132C74.0812 156.26 72.9728 154.871 72.3522 154.058C71.4064 152.802 71.2734 152.581 71.5246 152.536C71.7315 152.507 71.835 152.329 71.9088 151.945C72.0714 150.955 72.7216 147.926 72.7955 147.704C72.8546 147.571 72.766 147.468 72.5295 147.423C69.7661 146.891 69.0272 146.699 68.0814 146.241L67.0174 145.739L65.6578 142.946C63.2195 137.951 63.2195 137.921 64.8451 138.749C65.3032 139 66.648 139.606 67.8302 140.108C70.7414 141.35 72.2931 142.133 73.7117 143.108C74.3767 143.566 74.9531 143.936 74.9974 143.936C75.0417 143.936 75.2486 143.551 75.4555 143.093C77.8495 137.655 80.3913 133.842 84.2483 129.882C87.3812 126.69 89.8934 124.858 94.2085 122.656C95.1986 122.138 95.5533 121.887 95.5829 121.651C95.6124 121.473 95.7306 121.326 95.8489 121.326C95.9671 121.326 96.174 121.267 96.3217 121.193C96.7799 120.956 97.2971 120.764 98.0951 120.513C98.5236 120.38 98.9374 120.143 99.0113 119.996C99.1 119.848 99.1591 119.198 99.1591 118.562C99.1591 116.464 99.4251 114.883 100.12 112.843L100.785 110.907L100.061 110.168C95.5976 105.528 92.4647 99.7945 90.588 92.8046C90.2776 91.6815 89.8491 89.2431 89.6274 87.4846C89.3319 85.0463 89.3319 79.2238 89.6274 77.1254C90.721 69.3523 93.6765 62.4363 98.5532 56.3035C101.198 52.9785 104.834 49.6535 108.395 47.3186C110.139 46.1659 113.848 44.1709 115.341 43.565C117.38 42.7375 120.395 41.7326 122.36 41.2154C122.907 41.0824 125.892 40.5652 127.532 40.3287C128.064 40.2548 130.074 40.1514 132.025 40.0923C137.049 39.9593 140.581 40.373 144.601 41.5405C144.852 41.5996 145.443 41.7769 145.931 41.9099C150.482 43.1513 156.497 46.3137 160.472 49.5796C166.767 54.737 170.757 60.1753 173.55 67.4164C174.703 70.4163 175.856 74.7018 175.856 75.9875C175.856 76.2239 175.915 76.5343 175.989 76.6673C176.063 76.8003 176.196 78.278 176.299 79.9479C176.476 83.0365 176.329 87.3959 176.004 88.9624C175.93 89.3318 175.752 90.2333 175.619 90.9574C174.511 97.031 170.905 104.538 167.093 108.72C166.827 109.001 166.309 109.577 165.925 109.991C165.541 110.42 165.186 110.863 165.142 111.011C165.098 111.144 165.201 111.646 165.378 112.119C166.043 113.922 166.383 115.71 166.516 118.281L166.62 120.025L168.319 120.72C169.398 121.148 170.019 121.473 170.019 121.621C170.019 121.739 170.698 122.183 171.674 122.67C177.969 125.833 182.58 129.971 186.644 136.059C188.003 138.098 190.087 142.133 190.545 143.611C190.678 144.039 190.767 144.024 191.638 143.463C192.363 142.975 192.643 142.798 194.092 141.941C194.505 141.689 195.88 141.069 197.136 140.552C199.988 139.369 200.609 139.089 201.303 138.66C201.909 138.291 202.16 138.231 202.16 138.483C202.16 139.044 199.146 145.088 198.628 145.561C198.022 146.123 196.412 146.788 194.55 147.261C193.663 147.497 192.909 147.689 192.88 147.719C192.85 147.734 192.939 148.339 193.072 149.064C193.205 149.773 193.412 150.955 193.53 151.694C193.633 152.418 193.796 153.039 193.885 153.068C194.165 153.172 194.032 153.423 192.968 154.768C191.047 157.236 189.703 158.728 189.481 158.684C189.318 158.654 189.067 157.901 188.639 156.127C186.658 148.118 183.939 141.571 180.851 137.478C179.787 136.074 177.319 133.458 176.196 132.557C175.752 132.187 175.294 131.803 175.176 131.7C174.792 131.33 173.58 130.458 172.59 129.808C170.299 128.345 167.536 127.059 160.753 124.281C160.132 124.03 159.541 123.72 159.438 123.601C159.305 123.439 159.305 123.143 159.467 122.242C159.6 121.533 159.674 120.158 159.659 118.592C159.645 116.36 159.6 115.917 159.246 114.646C158.728 112.725 157.96 110.937 157.014 109.444C155.98 107.789 155.315 107.021 153.911 105.839C153.275 105.292 152.477 104.612 152.167 104.331L151.605 103.814L153.024 102.277C155.433 99.691 156.63 97.5778 157.797 93.9573C158.773 90.9574 159.142 88.6225 159.26 84.9724C159.349 82.1794 159.113 79.209 158.64 77.0663C157.797 73.1945 156.408 69.7808 154.502 66.9583C150.571 61.1063 144.837 57.1458 138.32 55.7715C136.606 55.4168 130.769 55.4168 128.789 55.7715C127.03 56.0818 125.065 56.5695 124.473 56.8355C124.222 56.9537 123.395 57.2788 122.626 57.5744C119.789 58.6679 117.572 60.1309 114.912 62.6579C111.07 66.3376 108.824 70.3276 107.346 76.0909C106.681 78.677 106.489 80.5095 106.489 84.1596C106.489 86.7753 106.548 87.6619 106.917 90.0707C107.213 91.9327 108.144 94.9326 109.001 96.7946C110.05 99.0113 110.834 100.164 112.932 102.454C113.627 103.208 114.085 103.829 114.04 103.947C113.996 104.065 113.464 104.523 112.873 104.967C109.474 107.479 107.139 111.232 106.297 115.444C105.986 117.025 106.001 120.173 106.312 122.124C106.445 122.936 106.504 123.646 106.445 123.69C106.105 124 103.223 125.33 102.307 125.611C101.73 125.789 100.814 126.158 100.267 126.439C99.7354 126.72 99.233 126.941 99.1591 126.941C98.8487 126.941 94.9474 128.833 94.2824 129.306C94.0755 129.439 93.78 129.601 93.6174 129.66C93.4548 129.719 92.7751 130.178 92.1101 130.68C86.864 134.67 84.3665 137.596 81.8247 142.68C80.2583 145.812 78.3224 151.236 77.3471 155.241C76.8298 157.354 76.4456 158.625 76.3126 158.669C76.2092 158.699 75.5442 158.004 74.8201 157.132Z" fill="#FAF7E7"/>
<path d="M122.109 141.556C118.415 138.778 115.031 135.364 112.06 131.448C110.76 129.719 109.77 128.123 109.858 127.887C110.021 127.443 110.642 127.68 111.691 128.611C115.193 131.67 115.962 132.335 117.705 133.739C118.769 134.596 119.952 135.527 120.336 135.808C120.72 136.088 121.355 136.561 121.74 136.857C122.124 137.138 123.099 137.832 123.912 138.394C124.725 138.955 125.641 139.576 125.937 139.783C126.247 139.99 126.483 140.241 126.498 140.315C126.498 140.448 124.725 142.029 123.971 142.561C123.749 142.724 123.498 142.591 122.109 141.556Z" fill="#FAF7E7"/>
<path d="M130.192 136.059C127.71 134.552 121.917 130.665 121.917 130.488C121.917 130.399 125.316 127.429 125.818 127.104C126.084 126.911 128.256 124.621 129.764 122.892C130.059 122.567 130.636 121.917 131.02 121.473C131.419 121.03 132.409 119.833 133.222 118.828C134.02 117.808 134.936 116.73 135.246 116.404C135.557 116.079 135.808 115.769 135.808 115.71C135.808 115.651 136.236 115.178 136.739 114.661C138.586 112.813 140.773 110.198 142.354 107.966C142.753 107.405 143.108 107.006 143.167 107.065C143.212 107.109 143.197 107.198 143.123 107.257C143.034 107.316 142.842 107.523 142.68 107.7L142.384 108.055L142.946 107.952L143.492 107.848V110.479C143.492 111.927 143.566 113.508 143.655 113.996C144.438 118.473 145.561 120.956 148.073 123.764C148.635 124.414 149.108 125.02 149.108 125.109C149.108 125.301 147.157 126.453 144.01 128.153C142.266 129.099 137.862 132.01 132.764 135.601C132.01 136.118 131.315 136.547 131.212 136.547C131.094 136.547 130.636 136.325 130.192 136.059Z" fill="#FAF7E7"/>
<path d="M76.2535 132.645C76.0466 132.527 73.9482 131.892 71.5985 131.241C66.6184 129.852 65.0815 129.173 61.7417 126.956C60.6334 126.217 59.6581 125.611 59.5694 125.611C59.4955 125.611 59.3625 125.389 59.2739 125.138C59.2 124.872 58.9931 124.266 58.8305 123.793C58.535 122.981 58.2099 121.917 57.9291 120.734C57.8552 120.454 57.8404 120.173 57.9143 120.099C57.9734 120.04 58.7862 120.35 59.7172 120.794C61.2393 121.532 62.1999 121.872 63.6924 122.212C63.9732 122.271 65.0076 122.508 65.983 122.715C70.5493 123.734 73.7117 125.227 76.1649 127.532C77.8643 129.143 80.0662 132.054 79.7854 132.335C79.7263 132.379 79.1647 132.483 78.5145 132.557C77.8643 132.631 77.1845 132.719 76.9776 132.764C76.7855 132.808 76.4604 132.749 76.2535 132.645Z" fill="#FAF7E7"/>
<path d="M188.639 132.631C188.565 132.601 187.988 132.542 187.383 132.483C185.964 132.365 185.787 132.261 186.023 131.744C186.688 130.281 189.644 127.104 191.417 125.951C193.102 124.843 195.954 123.646 197.801 123.247C198.126 123.173 198.954 122.981 199.648 122.803C201.865 122.257 202.692 122.065 202.944 122.065C203.254 122.065 205.249 121.237 206.727 120.513C207.318 120.217 207.835 120.01 207.879 120.055C207.968 120.143 207.406 122.404 206.86 124.104C206.52 125.124 206.342 125.463 206.165 125.463C205.87 125.463 204.776 126.158 204.17 126.72C203.948 126.926 203.742 127.089 203.712 127.089C203.682 127.089 203.195 127.385 202.648 127.739C201.525 128.449 199.885 129.306 198.747 129.749C197.993 130.059 193.574 131.375 190.855 132.128C190.043 132.35 189.245 132.557 189.082 132.601C188.919 132.645 188.727 132.66 188.639 132.631Z" fill="#FAF7E7"/>
<path d="M83.8197 123.557C83.7162 123.498 83.465 123.114 83.2877 122.715C83.0956 122.316 82.4749 121.178 81.8986 120.173C80.7163 118.119 80.0661 116.641 79.6967 115.163C79.475 114.336 79.4307 113.523 79.4454 110.538C79.4602 107.08 79.475 106.814 79.9183 104.804C80.2582 103.179 80.5094 102.41 80.9823 101.494C81.8394 99.824 82.2976 99.1294 82.5044 99.1885C82.6079 99.2181 83.0956 100.075 83.598 101.08C85.5487 104.967 86.4501 108.927 86.4501 113.567C86.4501 117.232 85.8294 120.542 84.6768 122.996C84.3517 123.69 84.1891 123.794 83.8197 123.557Z" fill="#FAF7E7"/>
<path d="M180.836 122.774C179.092 118.37 178.649 112.902 179.624 108.085C180.259 105.04 182.653 99.0849 183.2 99.1883C183.348 99.2179 183.732 99.7942 184.087 100.489C185.313 102.898 186.008 107.405 185.86 112.06C185.742 115.799 185.343 117.069 183.112 120.808C182.535 121.784 181.974 122.818 181.885 123.128C181.634 123.985 181.279 123.867 180.836 122.774Z" fill="#FAF7E7"/>
<path d="M70.9335 116.375C70.9335 116.168 70.8744 116.005 70.8005 116.005C70.7414 116.005 70.638 115.636 70.5936 115.178C70.5493 114.675 70.2981 113.907 69.973 113.227C69.5001 112.222 69.175 111.838 66.8992 109.592C64.8303 107.538 64.2244 106.858 63.7072 105.927C62.1112 103.06 61.4758 100.681 60.9585 95.6417C60.5743 91.8734 60.4709 91.164 60.3083 91.031C60.2492 90.9867 60.3379 90.4104 60.4856 89.7454C60.7221 88.6961 60.796 88.5484 61.0176 88.6518C61.1506 88.7257 62.3329 89.7897 63.6333 91.0162C69.3228 96.3215 71.702 100.09 72.4852 105.159C72.8694 107.553 72.6773 111.055 71.9975 114.01C71.436 116.434 71.3473 116.744 71.1404 116.744C71.0222 116.744 70.9335 116.597 70.9335 116.375Z" fill="#FAF7E7"/>
<path d="M194.195 116.124C193.205 112.429 192.998 111.01 192.998 108.144C192.998 105.158 193.205 103.932 194.136 101.523C195.067 99.0995 196.042 97.4592 197.934 95.1982C199.707 93.0702 204.584 88.5039 204.805 88.7551C204.865 88.829 205.027 89.2723 205.16 89.7452C205.337 90.425 205.352 90.5875 205.19 90.5875C204.894 90.5875 204.82 90.9422 204.658 93.0997C204.406 96.3804 203.934 99.9862 203.579 101.42C203.15 103.09 202.264 105.025 201.214 106.607C200.372 107.863 199.796 108.483 197.298 110.892C195.51 112.606 195.082 113.36 194.904 115.104C194.845 115.725 194.786 116.345 194.786 116.493C194.757 116.995 194.358 116.744 194.195 116.124Z" fill="#FAF7E7"/>
<path d="M132.084 110.966C130.015 110.479 126.838 108.07 123.808 104.715C121.991 102.691 120.616 100.666 119.759 98.7155C118.4 95.6269 117.986 93.3807 118.119 89.7454C118.208 87.2923 118.415 86.0361 118.74 85.9179C118.843 85.8736 119.419 86.2283 120.025 86.7159C121.666 88.0607 122.789 88.5188 124.355 88.504C125.597 88.504 126.705 88.0459 128.005 87.0115C128.36 86.7307 128.449 86.7159 128.862 86.8933C129.468 87.1445 129.572 86.9967 129.232 86.3465C128.892 85.7258 127.991 85.0165 126.734 84.381C125.951 83.982 125.715 83.9377 124.592 83.9525C121.562 83.9673 119.257 84.5436 118.887 85.3859C118.784 85.6224 118.621 85.711 118.267 85.711C117.838 85.711 117.794 85.6815 117.942 85.445C118.163 85.1051 119.434 84.2185 120.306 83.8195C122.02 83.0363 125.301 82.9919 127.636 83.716C128.966 84.1298 129.01 84.1298 129.306 83.8638C129.734 83.4796 129.705 82.4451 129.232 81.6324C128.966 81.1743 128.656 80.8935 128.05 80.6127C127.237 80.2137 127.222 80.2137 124.695 80.2876C122.198 80.3615 120.809 80.4797 120.572 80.6127C120.513 80.657 120.424 80.6275 120.38 80.5536C120.336 80.4797 121.4 79.593 122.759 78.5734C127.503 75.071 130.192 71.6574 132.114 66.7659C132.453 65.8793 132.793 65.1699 132.867 65.1699C133 65.1699 133.281 65.7463 133.71 66.9433C134.833 70.017 136.547 72.7066 138.97 75.1893C140.02 76.2828 144.054 79.4748 145.266 80.1989C145.709 80.4501 145.842 80.6866 145.561 80.6866C145.487 80.6866 145.162 80.5831 144.837 80.4501C144.364 80.2728 143.803 80.2285 141.837 80.2876C138.897 80.3615 137.936 80.524 136.887 81.1447C136.104 81.6324 135.793 83.317 136.399 83.8638C136.68 84.1298 136.739 84.115 137.98 83.7456C140.596 82.9771 142.118 82.918 144.35 83.5091C145.665 83.849 146.123 84.0855 147.143 84.8539C148.28 85.7258 148.665 86.5977 148.812 88.6814C149.271 94.6811 147.734 100.311 144.497 104.656C143.226 106.356 142.502 107.109 141.276 108.025C138.985 109.725 137.227 110.582 135.32 110.907C134.33 111.07 132.646 111.099 132.084 110.966ZM134.714 106.09C135.409 105.764 136.443 104.7 136.355 104.434C136.31 104.301 135.453 104.242 133.355 104.213C130 104.168 129.454 104.228 129.454 104.612C129.454 104.981 130.281 105.779 131.005 106.119C131.862 106.518 133.872 106.503 134.714 106.09ZM136.99 102.691C137.507 102.617 138.025 102.469 138.128 102.38C138.424 102.144 138.35 101.612 137.995 101.272C137.404 100.74 136.695 100.622 133.813 100.533C129.542 100.4 127.385 100.873 127.385 101.952C127.385 102.351 127.739 102.528 129.188 102.779C130.562 103.016 135.291 102.971 136.99 102.691ZM134.685 97.9766C135.911 97.3559 136.547 96.218 135.956 95.686C135.66 95.42 135.645 95.42 135.01 95.7156C134.655 95.8929 133.961 96.1146 133.473 96.2033C132.616 96.3806 132.498 96.3658 131.375 95.9668C130 95.4791 129.705 95.553 129.631 96.3954C129.572 97.0456 130.015 97.5185 131.153 98.08C132.143 98.5529 133.621 98.5086 134.685 97.9766ZM142.768 88.3119C143.212 88.2085 143.744 88.0311 143.951 87.9277C144.35 87.7208 146.433 86.0066 146.744 85.6371C147.024 85.2973 146.655 84.9721 145.369 84.3663C144.364 83.8934 144.217 83.8638 142.68 83.8638C141.246 83.8786 140.892 83.9229 139.695 84.3367C138.941 84.5879 138.039 85.0017 137.7 85.2381C136.237 86.2578 135.778 87.2036 136.916 86.8489C137.419 86.7011 137.463 86.7159 138.01 87.2479C139.148 88.371 140.906 88.7553 142.768 88.3119ZM134.005 78.7359C134.271 78.5734 134.67 78.2039 134.892 77.9084C135.232 77.465 135.291 77.2434 135.291 76.4897C135.291 75.0119 134.478 74.1844 133.03 74.1844C131.478 74.1844 130.34 75.2336 130.34 76.6523C130.34 77.598 130.606 78.1744 131.242 78.6325C132.128 79.2531 133.089 79.2975 134.005 78.7359Z" fill="#FAF7E7"/>
<path d="M95.3909 122.006C95.583 121.873 95.6274 121.725 95.5535 121.459C95.317 120.661 95.1545 120.04 95.0954 119.641C95.0658 119.42 94.9771 119.154 94.9032 119.05C94.8294 118.961 94.7259 118.695 94.6668 118.444C94.4747 117.631 93.3811 114.912 92.4501 112.976C91.5487 111.1 90.2778 108.794 87.4848 103.962C85.1056 99.8537 84.0859 97.4006 82.8446 92.9525C82.0761 90.1595 81.8545 89.3172 81.7954 88.8443C81.7067 88.0758 81.4555 88.2384 81.0565 89.332C80.9087 89.7457 80.6723 90.3368 80.5245 90.6619C79.756 92.4353 78.6477 96.1445 78.1748 98.5385C78.027 99.307 77.8793 99.9572 77.8349 99.9867C77.8054 100.016 77.5246 99.6616 77.2143 99.2035C74.9237 95.7455 72.441 92.8343 66.3674 86.4651C64.9339 84.9725 63.7074 83.6721 63.6187 83.5834C62.8798 82.7411 62.8798 82.9332 63.5448 81.2633C64.3724 79.1944 67.0028 73.9187 68.0816 72.1454C68.3476 71.7168 68.5693 71.3474 68.5693 71.3031C68.5693 71.2735 68.8648 70.8154 69.2343 70.2834C69.6037 69.7366 69.8993 69.2637 69.8993 69.2194C69.8993 69.1751 70.6086 68.1406 71.4953 66.9141C72.3671 65.7023 73.1799 64.5496 73.2981 64.3871C73.6233 63.8994 75.8104 61.1803 76.4015 60.5301C78.2044 58.5055 78.8103 57.8553 80.0811 56.5844C82.7707 53.8653 85.9923 51.0575 88.2237 49.4467C90.9724 47.4813 91.6226 47.0084 92.79 46.2843C94.785 45.0134 97.1495 43.6686 99.2331 42.5898C102.1 41.1268 107.184 38.9693 109.43 38.2747C110.006 38.0974 110.597 37.8905 110.76 37.8314C111.44 37.5506 113.154 37.0777 116.449 36.2797C117.602 36.0137 118.326 35.8512 119.996 35.5408C120.69 35.4226 121.355 35.2748 121.474 35.2305C121.843 35.0827 125.006 34.6985 126.794 34.5655C130.281 34.3143 135.291 34.2404 137.655 34.4177C141.01 34.6542 144.985 35.1862 146.744 35.6147C147.497 35.8068 147.601 35.8216 148.517 35.9694C148.886 36.0285 149.345 36.1319 149.551 36.1911C149.758 36.2649 150.187 36.3832 150.512 36.4718C152.315 36.9447 153.689 37.3437 154.65 37.6984C155.064 37.8314 155.817 38.0826 156.349 38.2452C157.369 38.5555 160.384 39.7082 161.462 40.1958C161.802 40.3584 162.127 40.4914 162.186 40.4914C162.423 40.4914 167.211 42.9002 169.102 43.9937C172.354 45.8409 176.344 48.5009 178.974 50.5994C179.595 51.1018 180.334 51.6782 180.614 51.9146C181.235 52.3875 182.299 53.3333 183.821 54.7519C189.082 59.6286 194.166 66.1604 198.096 73.0764C199.234 75.0862 201.2 79.0318 201.85 80.6131C202.131 81.2633 202.397 81.9135 202.471 82.0465C202.87 82.8445 202.574 83.3322 200.224 85.7262C196.028 89.9969 194.033 92.125 192.614 93.8392C191.151 95.5977 188.846 98.6567 188.343 99.4991C188.121 99.8981 187.885 100.164 187.811 100.09C187.752 100.031 187.663 99.6468 187.619 99.2331C187.279 96.4401 184.87 89.0512 184.161 88.6078C184.013 88.5192 183.688 89.3467 183.688 89.8196C183.688 90.5289 181.56 97.2676 180.851 98.8636C180.422 99.8094 179.166 102.381 178.959 102.706C178.811 102.972 177.201 105.809 176.787 106.548C176.624 106.829 176.107 107.73 175.649 108.528C174.615 110.316 172.693 114.129 171.969 115.858C171.216 117.617 169.945 121.592 170.033 121.843C170.093 121.976 169.413 121.769 168.142 121.252L166.176 120.469L166.073 118.71C165.925 116.065 165.6 114.321 164.861 112.385C164.654 111.824 164.477 111.218 164.477 111.055C164.477 110.789 165.275 109.681 165.94 109.046C167.758 107.287 170.492 103.194 172.028 99.972C173.506 96.8391 174.629 93.4549 175.176 90.5142C175.309 89.7901 175.486 88.8591 175.575 88.4453C175.989 86.3764 176.004 80.3175 175.619 77.5836C175.546 77.0812 175.28 75.4852 175.22 75.2192C175.191 75.1009 175.117 74.702 175.058 74.3325C174.954 73.7118 174.688 72.6626 174.127 70.7858C173.698 69.2785 172.442 66.1456 171.585 64.3575C168.807 58.6533 165.378 54.3973 160.029 50.0231C156.054 46.7572 150.039 43.5947 145.488 42.3534C145 42.2204 144.409 42.0431 144.158 41.9839C143.138 41.6884 140.567 41.0825 140.02 41.0234C139.695 40.9791 138.838 40.8608 138.099 40.7574C136.473 40.5209 129.705 40.5209 128.124 40.7426C126.395 40.9938 123.38 41.5111 122.804 41.6588C120.838 42.1761 117.824 43.1809 115.784 44.0085C114.292 44.6144 110.582 46.6094 108.839 47.7621C103.74 51.1018 99.3366 55.6534 96.0264 60.9586C92.8344 66.0865 90.7803 71.9533 89.997 78.1008C89.8345 79.3865 89.864 85.1203 90.0414 86.8197C90.2335 88.5044 90.6916 91.0905 91.0315 92.3614C92.923 99.4252 95.8638 104.79 100.607 109.844C101.524 110.834 101.538 110.553 100.578 113.287C99.8686 115.341 99.6026 116.878 99.6026 119.006C99.6026 119.641 99.5435 120.291 99.4548 120.439C99.3809 120.587 98.9671 120.823 98.5386 120.956C98.11 121.089 97.6224 121.252 97.4598 121.311C96.9426 121.518 96.4401 121.74 95.8786 121.976C95.2284 122.272 95.0215 122.286 95.3909 122.006Z" fill="#569B72"/>
<path d="M127.311 184.722C124.148 184.471 123.38 184.382 123.306 184.264C123.262 184.19 123.336 184.131 123.454 184.131C123.587 184.131 123.69 184.072 123.69 183.998C123.69 183.939 124.326 183.702 125.109 183.481C130.207 182.062 135.542 179.018 140.374 174.747C142.281 173.062 146.167 169.161 148.147 166.959C148.857 166.161 149.507 165.511 149.596 165.511C149.684 165.511 149.699 165.467 149.64 165.408C149.551 165.304 149.773 165.038 150.881 163.959C151.162 163.679 151.399 163.383 151.399 163.309C151.399 163.235 151.591 163.028 151.812 162.851C152.034 162.674 152.197 162.482 152.152 162.452C152.108 162.408 152.241 162.245 152.433 162.083C152.64 161.92 152.773 161.743 152.729 161.684C152.699 161.624 152.862 161.418 153.113 161.24C153.364 161.048 153.527 160.871 153.482 160.826C153.438 160.782 153.571 160.62 153.763 160.457C153.97 160.309 154.118 160.132 154.088 160.073C154.059 159.969 154.265 159.718 155.049 158.876C155.27 158.639 155.403 158.418 155.374 158.373C155.329 158.329 155.462 158.166 155.669 158.004C155.876 157.856 156.009 157.679 155.965 157.634C155.921 157.59 156.054 157.442 156.26 157.295C156.482 157.162 156.615 157.014 156.571 156.969C156.526 156.925 156.63 156.792 156.792 156.689C156.955 156.57 157.058 156.423 157.014 156.349C156.97 156.275 157.073 156.142 157.236 156.053C157.398 155.965 157.531 155.802 157.531 155.684C157.531 155.566 157.664 155.403 157.827 155.314C157.989 155.226 158.093 155.093 158.049 155.019C158.004 154.945 158.108 154.797 158.27 154.679C158.433 154.575 158.521 154.442 158.477 154.383C158.433 154.339 158.536 154.236 158.699 154.132C158.876 154.043 158.98 153.91 158.935 153.837C158.891 153.763 159.009 153.6 159.186 153.482C159.364 153.349 159.452 153.245 159.379 153.245C159.29 153.245 159.349 153.172 159.497 153.083C159.63 153.009 159.748 152.861 159.748 152.758C159.748 152.654 159.881 152.492 160.044 152.388C160.221 152.285 160.31 152.137 160.265 152.063C160.206 151.975 160.28 151.871 160.398 151.827C160.531 151.782 160.605 151.679 160.561 151.605C160.516 151.546 160.62 151.413 160.782 151.324C160.945 151.236 161.048 151.103 161.004 151.014C160.945 150.94 161.019 150.837 161.137 150.792C161.27 150.748 161.344 150.645 161.3 150.571C161.255 150.512 161.359 150.379 161.521 150.29C161.684 150.201 161.787 150.068 161.743 149.994C161.699 149.935 161.876 149.669 162.127 149.418C162.378 149.167 162.526 148.96 162.452 148.96C162.393 148.96 162.452 148.886 162.6 148.797C162.733 148.709 162.822 148.59 162.792 148.531C162.748 148.472 162.866 148.251 163.043 148.058C163.221 147.866 163.354 147.659 163.324 147.586C163.309 147.526 163.398 147.438 163.516 147.393C163.635 147.349 163.708 147.246 163.664 147.187C163.635 147.127 163.753 146.906 163.945 146.699C164.137 146.492 164.255 146.285 164.226 146.241C164.181 146.196 164.255 146.123 164.388 146.063C164.521 146.019 164.595 145.916 164.551 145.857C164.506 145.797 164.58 145.694 164.713 145.65C164.832 145.605 164.905 145.502 164.861 145.428C164.817 145.354 164.935 145.132 165.127 144.926C165.319 144.719 165.452 144.512 165.423 144.482C165.393 144.453 165.526 144.246 165.718 144.039C165.925 143.817 166.043 143.64 165.984 143.64C165.925 143.64 165.999 143.566 166.147 143.477C166.28 143.389 166.368 143.27 166.324 143.182C166.265 143.108 166.309 143.049 166.383 143.049C166.472 143.049 166.546 142.945 166.546 142.827C166.546 142.709 166.62 142.605 166.694 142.605C166.782 142.605 166.841 142.502 166.841 142.384C166.841 142.266 166.915 142.162 166.989 142.162C167.078 142.162 167.137 142.059 167.137 141.94C167.137 141.807 167.24 141.674 167.359 141.63C167.477 141.571 167.536 141.482 167.492 141.408C167.447 141.335 167.492 141.275 167.565 141.275C167.654 141.275 167.728 141.172 167.728 141.054C167.728 140.936 167.802 140.832 167.905 140.832C167.994 140.832 168.038 140.788 167.994 140.743C167.891 140.655 169.59 137.862 169.856 137.699C169.945 137.64 169.974 137.581 169.9 137.581C169.767 137.581 170.506 136.369 170.743 136.221C170.831 136.162 170.846 136.103 170.772 136.103C170.698 136.103 170.757 135.97 170.905 135.808C171.053 135.645 171.216 135.556 171.26 135.616C171.304 135.689 171.733 136.059 172.206 136.443C172.664 136.842 173.048 137.212 173.048 137.285C173.048 137.359 172.605 138.143 172.073 139.014C171.526 139.886 170.92 140.906 170.698 141.261C169.708 142.901 165.408 149.27 163.901 151.324C162.127 153.733 157.723 159.29 156.083 161.211C151.724 166.279 145.606 172.279 139.207 177.777C137.803 178.974 133.045 182.624 132.187 183.156C131.951 183.303 131.715 183.466 131.67 183.525C131.626 183.569 131.197 183.865 130.724 184.19C129.734 184.84 129.439 184.885 127.311 184.722Z" fill="#C3C0A4"/>
<path d="M140.552 184.456C140.581 184.383 140.906 184.057 141.276 183.762C146.685 179.284 154.561 171.496 160.177 165.098C160.989 164.167 161.3 163.915 161.448 164.034C161.581 164.137 161.654 164.994 161.714 167.107C161.758 168.703 161.832 170.787 161.876 171.718C161.92 172.649 161.994 174.644 162.039 176.151C162.142 179.299 162.201 179.136 160.783 179.698C159.571 180.186 152.61 182.476 151.266 182.816C150.63 182.993 149.596 183.215 148.975 183.319C148.354 183.437 147.423 183.614 146.891 183.732C144.468 184.279 140.448 184.737 140.552 184.456Z" fill="#C3C0A4"/>
<path d="M112.016 181.737C111.262 181.471 110.331 181.146 108.587 180.511C107.952 180.289 107.893 180.23 108.041 179.979C108.114 179.816 108.366 179.609 108.587 179.506C108.809 179.417 109.016 179.299 109.06 179.24C109.208 179.063 113.39 176.299 113.508 176.299C113.582 176.299 113.641 176.24 113.641 176.151C113.641 176.077 113.745 176.004 113.863 176.004C113.981 176.004 114.144 175.871 114.232 175.708C114.321 175.545 114.484 175.412 114.617 175.412C114.735 175.412 114.868 175.309 114.912 175.191C114.971 175.073 115.09 174.969 115.208 174.969C115.311 174.969 115.474 174.836 115.562 174.674C115.651 174.511 115.814 174.378 115.932 174.378C116.035 174.378 116.272 174.186 116.449 173.935C116.626 173.698 116.848 173.491 116.952 173.491C117.07 173.491 117.395 173.196 117.69 172.826C118.001 172.457 118.326 172.161 118.415 172.161C118.518 172.161 118.932 171.792 119.331 171.334C119.745 170.876 120.217 170.447 120.41 170.373C120.602 170.299 120.705 170.181 120.661 170.092C120.616 170.019 120.661 169.945 120.764 169.945C120.986 169.945 124.355 166.605 124.355 166.383C124.355 166.295 125.005 165.615 125.789 164.861C126.587 164.107 127.193 163.457 127.163 163.413C127.119 163.369 127.518 162.94 128.035 162.438C128.552 161.95 128.951 161.521 128.922 161.477C128.877 161.447 129.188 161.122 129.601 160.782C130.015 160.443 130.311 160.117 130.266 160.073C130.222 160.029 130.636 159.526 131.183 158.95C131.744 158.374 132.483 157.546 132.852 157.118C133.355 156.526 133.577 156.349 133.783 156.423C133.916 156.482 134.035 156.63 134.035 156.748C134.035 157.162 127.37 165.955 123.675 170.418C120.025 174.836 114.957 180.333 113.346 181.619L112.829 182.033L112.016 181.737Z" fill="#C3C0A4"/>
<path d="M167.61 176.137C167.536 175.944 167.432 174.984 167.373 174.009C167.211 171.304 166.812 165.718 166.62 163.664C166.516 162.452 166.25 158.344 166.25 157.827C166.25 157.531 166.871 156.6 168.556 154.339C170.551 151.665 173.935 146.699 176.432 142.798C176.861 142.118 177.26 141.571 177.304 141.571C177.54 141.586 177.777 141.837 177.984 142.34C178.191 142.827 178.191 142.872 177.954 142.842C177.821 142.842 177.703 142.931 177.703 143.049C177.703 143.167 177.6 143.345 177.481 143.448C177.363 143.552 177.304 143.64 177.363 143.64C177.422 143.64 177.378 143.758 177.26 143.906C177.141 144.039 177.038 144.217 177.053 144.29C177.053 144.364 176.994 144.468 176.92 144.512C176.846 144.556 176.27 145.428 175.634 146.448C174.999 147.468 173.432 149.862 172.147 151.783C170.861 153.704 169.738 155.462 169.649 155.669C169.427 156.29 169.25 174.747 169.472 174.88C169.782 175.073 169.664 175.25 169.028 175.575C168.674 175.752 168.245 176.018 168.068 176.196L167.743 176.491L167.61 176.137Z" fill="#C3C0A4"/>
<path d="M99.2922 166.694C99.2774 166.649 99.2479 166.295 99.2183 165.881C99.174 165.482 98.9523 164.078 98.7011 162.777C98.4647 161.477 98.1987 160.088 98.1248 159.674C98.0509 159.275 97.8292 158.359 97.6223 157.635C97.0017 155.536 96.5288 153.97 96.2037 152.98C95.5239 150.867 96.0559 151.517 97.4598 154.517C98.7898 157.369 99.8094 159.999 100.563 162.482C100.859 163.457 101.154 164.285 101.243 164.3C101.538 164.418 101.332 164.758 100.341 165.733C99.7799 166.295 99.307 166.723 99.2922 166.694Z" fill="#C3C0A4"/>
<path d="M142.015 163.738C141.897 163.501 141.926 163.294 142.148 162.777C142.31 162.408 142.503 162.112 142.576 162.112C142.65 162.112 142.709 162.023 142.709 161.92C142.709 161.669 143.493 160.486 143.67 160.486C143.744 160.486 143.773 160.427 143.729 160.368C143.685 160.294 143.773 160.102 143.936 159.94C144.084 159.762 144.187 159.6 144.143 159.57C144.113 159.526 144.246 159.319 144.438 159.112C144.631 158.905 144.749 158.698 144.719 158.654C144.675 158.61 144.749 158.536 144.882 158.477C145.015 158.432 145.089 158.344 145.044 158.27C145.015 158.211 145.133 158.004 145.31 157.826C145.488 157.634 145.635 157.368 145.665 157.25C145.68 157.117 145.798 156.94 145.931 156.851C146.064 156.748 146.153 156.629 146.138 156.57C146.094 156.423 148.089 153.334 148.325 153.201C148.428 153.127 148.488 153.024 148.458 152.965C148.414 152.905 148.517 152.699 148.68 152.536C148.842 152.359 148.916 152.211 148.857 152.211C148.798 152.211 148.842 152.122 148.96 152.019C149.079 151.915 149.197 151.753 149.226 151.649C149.271 151.383 150.749 149.048 150.941 148.93C151.029 148.856 151.044 148.812 150.955 148.812C150.882 148.812 150.911 148.723 151.044 148.62C151.177 148.516 151.281 148.383 151.281 148.324C151.281 148.132 153.586 144.172 153.719 144.113C153.793 144.083 153.808 143.994 153.748 143.921C153.704 143.847 153.734 143.788 153.822 143.788C153.97 143.788 154.221 143.226 154.162 143.019C154.147 142.945 154.207 142.901 154.295 142.901C154.369 142.901 154.399 142.842 154.354 142.753C154.31 142.679 154.325 142.605 154.413 142.605C154.502 142.605 154.665 142.413 154.798 142.162C154.931 141.926 154.99 141.719 154.945 141.719C154.886 141.719 154.96 141.615 155.078 141.482C155.211 141.364 155.285 141.187 155.241 141.113C155.182 141.039 155.226 140.98 155.315 140.98C155.404 140.98 155.433 140.921 155.389 140.832C155.344 140.758 155.374 140.684 155.463 140.684C155.551 140.684 155.596 140.625 155.537 140.551C155.492 140.463 155.61 140.27 155.788 140.108C155.965 139.931 156.054 139.798 155.995 139.798C155.936 139.798 155.995 139.694 156.113 139.561C156.246 139.443 156.32 139.266 156.275 139.192C156.216 139.118 156.261 139.059 156.349 139.059C156.438 139.059 156.468 139 156.423 138.911C156.379 138.837 156.408 138.763 156.497 138.763C156.586 138.763 156.615 138.704 156.571 138.615C156.527 138.541 156.556 138.468 156.645 138.468C156.734 138.468 156.763 138.408 156.719 138.32C156.674 138.246 156.704 138.172 156.793 138.172C156.881 138.172 156.926 138.113 156.867 138.039C156.822 137.965 156.896 137.803 157.014 137.684C157.133 137.551 157.236 137.418 157.236 137.359C157.236 137.3 157.339 137.167 157.458 137.034C157.576 136.916 157.65 136.753 157.605 136.679C157.546 136.606 157.591 136.546 157.679 136.546C157.768 136.546 157.798 136.487 157.753 136.399C157.709 136.325 157.738 136.251 157.827 136.251C157.916 136.251 157.96 136.192 157.901 136.118C157.857 136.044 157.901 135.896 158.004 135.778C158.108 135.675 158.211 135.482 158.241 135.364C158.27 135.246 158.389 135.083 158.507 135.024C158.625 134.95 158.684 134.847 158.64 134.758C158.581 134.684 158.61 134.625 158.699 134.625C158.832 134.625 159.024 134.226 159.098 133.739C159.128 133.62 159.216 133.502 159.305 133.473C159.379 133.443 159.423 133.354 159.364 133.281C159.32 133.207 159.364 133.148 159.453 133.148C159.541 133.148 159.586 133.088 159.527 133C159.482 132.926 159.571 132.734 159.733 132.571C159.896 132.409 159.985 132.246 159.926 132.202C159.881 132.157 159.926 132.113 160.029 132.113C160.132 132.113 160.162 132.054 160.118 131.965C160.073 131.891 160.103 131.818 160.192 131.818C160.28 131.818 160.325 131.758 160.265 131.685C160.221 131.596 160.31 131.478 160.443 131.389C160.591 131.3 160.65 131.226 160.561 131.226C160.487 131.226 160.605 131.064 160.842 130.857C161.27 130.488 161.27 130.473 160.99 130.251C160.709 130.029 160.709 130.029 161.004 130.177C161.906 130.621 161.935 130.473 160.443 133.517C159.674 135.069 158.536 137.418 157.901 138.763C156.172 142.354 152.433 149.728 150.364 153.615C147.66 158.698 145.857 162.26 146.02 162.26C146.094 162.26 146.153 162.334 146.153 162.408C146.153 162.496 146.005 162.555 145.813 162.555C145.635 162.555 144.956 162.88 144.305 163.294C142.99 164.107 142.281 164.24 142.015 163.738Z" fill="#C3C0A4"/>
<path d="M193.471 153.601C193.353 153.482 193.175 152.803 193.072 152.093C192.969 151.384 192.732 150.054 192.555 149.138C192.377 148.207 192.274 147.409 192.348 147.35C192.422 147.29 193.22 147.054 194.106 146.818C195.835 146.389 197.624 145.665 198.052 145.236C198.2 145.089 198.481 144.97 198.688 144.97C198.88 144.97 199.116 144.852 199.205 144.719C199.973 143.507 198.126 147.024 197.092 148.739C196.161 150.305 193.929 153.645 193.767 153.748C193.707 153.778 193.574 153.704 193.471 153.601Z" fill="#C3C0A4"/>
<path d="M71.7464 153.231C68.6283 148.738 66.6333 145.384 66.9584 145.192C67.0323 145.133 67.653 145.369 68.318 145.694C69.4559 146.256 71.6725 146.876 72.574 146.891C72.7809 146.891 73.0616 146.98 73.2094 147.083C73.4606 147.261 73.4606 147.334 73.1651 148.443C73.0025 149.093 72.707 150.512 72.5001 151.605C72.2932 152.699 72.1011 153.6 72.0863 153.615C72.0568 153.645 71.909 153.467 71.7464 153.231Z" fill="#C3C0A4"/>
<path d="M193.486 133.281C191.579 133.148 188.831 132.719 188.639 132.527C188.402 132.305 188.949 132.01 190.102 131.744C190.678 131.611 191.786 131.315 192.555 131.079C193.323 130.842 194.89 130.369 196.028 130.044C198.274 129.379 200.505 128.389 202.16 127.325C202.737 126.956 203.269 126.645 203.343 126.645C203.431 126.645 203.49 126.586 203.49 126.527C203.49 126.187 205.663 124.872 206.239 124.872C206.594 124.872 206.431 125.508 205.707 126.956C204.879 128.611 204.259 129.498 203.978 129.394C203.83 129.335 203.402 129.616 202.796 130.148C200.668 132.039 200.387 132.217 198.968 132.704C198.215 132.956 197.21 133.192 196.737 133.236C196.264 133.281 195.688 133.325 195.436 133.34C195.2 133.369 194.313 133.34 193.486 133.281Z" fill="#C3C0A4"/>
<path d="M68.3474 133.044C66.3672 132.586 64.8894 131.862 63.5594 130.695C63.0422 130.251 62.4363 129.852 62.2294 129.808C61.9486 129.749 61.6383 129.453 61.2097 128.818C60.5004 127.769 59.2591 125.301 59.3625 125.138C59.5251 124.843 60.0866 125.123 62.0669 126.439C65.5101 128.714 67.0617 129.409 71.7463 130.709C76.0614 131.906 76.9924 132.217 76.9924 132.424C76.9924 132.498 76.9924 132.601 76.9924 132.66C77.0072 132.926 74.7757 133.118 71.8202 133.118C70.0764 133.118 68.51 133.089 68.3474 133.044Z" fill="#C3C0A4"/>
<path d="M121.74 130.473C121.503 130.311 121.326 130.118 121.326 130.059C121.326 130 121.695 129.69 122.168 129.365C122.626 129.054 123.07 128.729 123.158 128.641C123.247 128.567 123.631 128.256 124.015 127.976C124.4 127.695 124.725 127.37 124.725 127.281C124.725 127.015 124.68 127.03 123.424 127.651C120.498 129.114 120.188 129.187 119.523 128.596C119.109 128.256 119.198 128.138 120.099 127.739C122.759 126.557 126.173 124.606 128.02 123.202C129.513 122.065 129.217 121.872 127.533 122.877C126.498 123.483 122.301 125.523 121.621 125.744C121.341 125.833 120.617 126.069 120.025 126.276C118.489 126.808 117.159 126.749 117.38 126.158C117.425 126.04 118.016 125.729 118.695 125.463C123.483 123.631 128.079 121.178 131.434 118.695C133.059 117.483 134.7 116.242 135.128 115.858C137.862 113.508 139.325 111.912 141.941 108.469C142.665 107.508 143.138 107.021 143.227 107.109C143.3 107.183 143.389 107.538 143.419 107.907C143.463 108.528 143.448 108.572 143.138 108.513C142.857 108.454 142.621 108.676 141.749 109.829C140.567 111.395 138.409 113.892 137.123 115.178C136.65 115.666 136.251 116.109 136.251 116.183C136.251 116.257 136.045 116.493 135.808 116.7C135.557 116.892 135.394 117.114 135.439 117.188C135.483 117.247 135.424 117.336 135.306 117.38C135.202 117.424 134.449 118.281 133.651 119.286C132.838 120.276 131.862 121.473 131.463 121.917C131.079 122.36 130.503 123.01 130.207 123.335C128.685 125.064 126.528 127.355 126.262 127.547C126.084 127.665 125.153 128.434 124.193 129.276C123.232 130.104 122.375 130.783 122.286 130.783C122.213 130.783 121.961 130.636 121.74 130.473Z" fill="#C3C0A4"/>
<path d="M80.2289 126.542C78.8989 125.065 77.7019 123.055 77.1551 121.311C76.6527 119.7 76.5049 118.252 76.5935 115.829C76.697 112.563 77.3029 109.844 78.6772 106.445C79.3718 104.73 81.2781 100.74 81.3815 100.829C81.4111 100.859 81.2338 101.657 80.9973 102.588C80.022 106.341 79.8742 107.405 79.8742 110.686C79.889 114.838 80.1993 116.006 82.3421 119.73C82.9184 120.735 83.5539 121.902 83.746 122.331C84.0711 123.025 84.2189 123.173 84.5588 123.114C84.7509 123.084 83.9085 124.488 83.1697 125.434C82.5194 126.247 81.3077 127.385 81.086 127.385C81.0417 127.385 80.6574 127.001 80.2289 126.542Z" fill="#C3C0A4"/>
<path d="M183.939 126.941C182.994 126.187 180.422 122.715 181.161 123.158C181.22 123.202 181.353 122.981 181.442 122.685C181.531 122.375 182.092 121.34 182.668 120.365C184.796 116.803 185.284 115.34 185.417 112.075C185.55 108.838 185.181 105.779 184.205 102.011C184.058 101.435 184.013 100.991 184.102 100.843C184.191 100.681 184.501 101.169 185.358 102.883C187.057 106.326 187.56 107.597 188.269 110.316C188.919 112.828 189.067 114.01 189.067 116.597C189.067 120.188 188.52 122.183 186.821 124.769C186.067 125.921 184.841 127.237 184.53 127.237C184.412 127.237 184.146 127.104 183.939 126.941Z" fill="#C3C0A4"/>
<path d="M68.1259 114.956C64.328 112.562 62.8798 111.321 61.5054 109.326C59.9685 107.095 58.9637 103.474 58.9784 100.267C58.9784 98.0211 59.4365 94.2823 59.9981 91.9179C60.1607 91.2233 60.338 90.4697 60.3823 90.2332C60.6779 88.7702 60.8552 89.7308 61.4759 95.8636C61.9044 100.164 62.6138 102.735 64.1507 105.484C64.6679 106.415 65.2738 107.095 67.3427 109.149C69.6184 111.395 69.9435 111.779 70.4164 112.769C70.712 113.39 70.978 114.247 71.0371 114.69C71.0814 115.134 71.1996 115.533 71.2735 115.592C71.4509 115.695 71.4509 116.582 71.2735 116.759C71.2144 116.818 69.7958 116.02 68.1259 114.956Z" fill="#C3C0A4"/>
<path d="M194.239 116.227C194.151 115.947 194.136 115.754 194.21 115.799C194.269 115.843 194.328 115.858 194.343 115.828C194.343 115.799 194.402 115.282 194.461 114.661C194.638 112.917 195.067 112.163 196.855 110.449C199.352 108.04 199.929 107.42 200.771 106.164C201.82 104.582 202.707 102.647 203.135 100.977C203.49 99.5432 203.963 95.9374 204.214 92.642C204.362 90.6026 204.495 89.9968 204.894 89.6125C205.071 89.4352 205.116 89.4352 205.13 89.583C205.13 89.6864 205.16 89.8785 205.204 89.9968C205.234 90.115 205.396 90.8539 205.559 91.6223C207.007 98.2132 207.111 102.292 205.914 105.809C205.042 108.351 203.401 110.73 201.466 112.311C201.214 112.518 200.756 112.888 200.461 113.124C199.5 113.892 194.801 116.745 194.49 116.745C194.446 116.745 194.328 116.508 194.239 116.227Z" fill="#C3C0A4"/>
<path d="M131.448 110.907C128.508 110.434 125.892 109.016 123.395 106.533C120.882 104.036 119.36 101.553 118.252 98.1244C117.321 95.2427 117.188 94.3709 117.084 90.5139C117.011 87.3662 117.144 86.4795 117.794 85.652C118.104 85.2677 118.991 85.0313 118.858 85.3712C118.813 85.4894 118.961 85.7702 119.183 86.0066C119.508 86.3465 119.538 86.4204 119.316 86.4056C118.917 86.3613 118.666 87.4844 118.562 89.7306C118.311 95.0654 120.143 99.7056 124.252 104.272C126.838 107.139 129.143 109.03 131.345 110.065C131.966 110.36 132.557 110.686 132.631 110.774C132.719 110.878 132.911 110.981 133.074 111.025C133.709 111.173 132.616 111.099 131.448 110.907Z" fill="#C3C0A4"/>
<path d="M145.207 80.6278C144.882 80.4801 144.837 80.421 145.029 80.3471C145.34 80.2288 145.709 80.3766 145.709 80.6278C145.709 80.7461 145.694 80.8347 145.68 80.82C145.65 80.82 145.443 80.7313 145.207 80.6278Z" fill="#C3C0A4"/>
</svg>
